<svg width="194" height="71" viewBox="0 0 194 71" fill="none" xmlns="http://www.w3.org/2000/svg">
<path d="M112.361 13.381C109.528 10.3974 106.351 9.0211 98.4298 7.53186C89.8577 5.88981 89.3218 5.5839 87.0241 0.992936C85.3392 -2.18244 85.4167 0.26652 88.5696 38.6839L88.7235 40.9033L85.7002 40.0243C80.9547 38.5721 76.8221 38.9181 72.6903 40.9861C65.5743 44.5476 64.8117 51.627 71.0891 56.1399C75.9502 59.735 85.1337 58.966 89.7621 54.6402C91.1774 53.2621 92.4393 51.1952 92.5536 49.8942C92.7062 48.6696 92.3204 40.634 91.5517 32.0245C90.8978 23.4533 90.3209 16.1831 90.3974 15.9534C90.4355 15.6473 91.6218 15.9147 92.9231 16.4116C94.3008 16.8703 98.6251 17.6722 102.643 18.0532C106.585 18.4726 111.483 19.2743 113.511 19.8857L117.147 21.0322L115.539 18.0099C114.734 16.4031 113.28 14.2608 112.361 13.381Z" fill="black"/>
<path d="M45.5327 13.381C42.6998 10.3974 39.5233 9.0211 31.6017 7.53186C23.0296 5.88981 22.4937 5.5839 20.196 0.992936C18.5111 -2.18244 18.5885 0.26652 21.7414 38.6839L21.8954 40.9033L18.8721 40.0243C14.1266 38.5721 9.99401 38.9181 5.86214 40.9861C-1.25385 44.5476 -2.01638 51.627 4.26095 56.1399C9.12209 59.735 18.3055 58.966 22.934 54.6402C24.3492 53.2621 25.6112 51.1952 25.7255 49.8942C25.8781 48.6696 25.4922 40.634 24.7235 32.0245C24.0696 23.4533 23.4928 16.1831 23.5692 15.9534C23.6074 15.6473 24.7937 15.9147 26.0949 16.4116C27.4727 16.8703 31.797 17.6722 35.8151 18.0532C39.7566 18.4726 44.6549 19.2743 46.6832 19.8857L50.3189 21.0322L48.7105 18.0099C47.9063 16.4031 46.4514 14.2608 45.5327 13.381Z" fill="black"/>
<path d="M127.239 53.5025C127.239 53.5025 124.763 45.66 124.763 39.1737C124.763 31.6261 127.121 28.1471 127.121 28.1471C127.121 28.1471 126.296 27.6164 123.996 27.6164C120.576 27.6164 119.102 30.3878 116.39 30.3878C114.739 30.3878 113.795 29.9161 113.795 29.9161C113.795 29.9161 115.505 33.1002 115.505 38.9379C115.505 39.2917 115.446 39.6455 115.446 39.9993C113.559 44.5396 109.962 48.1955 108.075 48.1955C105.776 48.1955 105.717 43.832 105.717 39.1737C105.717 31.6261 108.075 28.1471 108.075 28.1471C108.075 28.1471 107.309 27.6164 105.009 27.6164C101.589 27.6164 100.056 30.3878 97.4025 30.3878C95.6925 30.3878 94.808 29.9161 94.808 29.9161C94.808 29.9161 96.459 33.1002 96.459 38.9379C96.459 43.891 94.3952 54.7997 103.889 54.7997C109.608 54.7997 113.205 48.5493 115.151 43.6551C114.385 48.9621 112.734 53.5025 112.734 53.5025H127.239Z" fill="black"/>
<path d="M60.4112 53.5025C60.4112 53.5025 57.9346 45.66 57.9346 39.1737C57.9346 31.6261 60.2932 28.1471 60.2932 28.1471C60.2932 28.1471 59.4677 27.6164 57.168 27.6164C53.748 27.6164 52.2739 30.3878 49.5614 30.3878C47.9104 30.3878 46.9669 29.9161 46.9669 29.9161C46.9669 29.9161 48.6769 33.1002 48.6769 38.9379C48.6769 39.2917 48.618 39.6455 48.618 39.9993C46.7311 44.5396 43.1341 48.1955 41.2472 48.1955C38.9475 48.1955 38.8886 43.832 38.8886 39.1737C38.8886 31.6261 41.2472 28.1471 41.2472 28.1471C41.2472 28.1471 40.4807 27.6164 38.181 27.6164C34.761 27.6164 33.2278 30.3878 30.5744 30.3878C28.8644 30.3878 27.9799 29.9161 27.9799 29.9161C27.9799 29.9161 29.6309 33.1002 29.6309 38.9379C29.6309 43.891 27.5671 54.7997 37.0606 54.7997C42.7803 54.7997 46.3773 48.5493 48.3231 43.6551C47.5566 48.9621 45.9055 53.5025 45.9055 53.5025H60.4112Z" fill="black"/>
<path d="M168.968 53.5025C168.968 53.5025 162.776 50.0824 158.531 41.4144C157.705 39.6455 155.641 36.6382 154.344 34.7513C157.764 31.744 161.892 28.5598 166.196 26.6729H153.401C153.401 26.6729 152.516 31.2133 150.511 33.8668C149.332 35.4589 147.386 37.5227 145.971 38.9379C145.912 38.1123 145.912 37.2868 145.912 36.5203C145.912 28.9726 148.27 14.7028 148.27 14.7028C148.27 14.7028 147.445 14.2311 145.145 14.2311C141.725 14.2311 140.251 17.0025 137.539 17.0025C135.888 17.0025 134.944 16.5308 134.944 16.5308C134.944 16.5308 136.654 29.6802 136.654 35.5178C136.654 44.9524 133.883 53.5025 133.883 53.5025H148.388C148.388 53.5025 147.15 48.4904 146.384 43.0655C146.384 43.0655 147.681 41.4734 149.804 39.2327C150.629 40.2351 151.691 41.6503 151.985 42.181C155.464 48.4314 153.813 53.5025 153.813 53.5025H168.968Z" fill="black"/>
<path d="M180.379 41.5913C184.33 42.0041 194 42.24 194 33.8668C194 28.9136 188.221 26.6729 182.914 26.6729C177.548 26.6729 168.468 30.2699 168.468 40.5299C168.468 50.79 177.313 54.7997 181.971 54.7997C187.632 54.7997 194 52.0283 194 46.0138C194 46.0138 183.386 49.6697 180.379 41.5913ZM179.612 36.6382C179.612 32.5695 181.086 28.5598 184.212 28.5598C186.275 28.5598 187.278 30.5057 187.278 32.8644C187.278 36.2844 183.74 39.1148 179.907 39.7634C179.73 38.8199 179.612 37.8175 179.612 36.6382Z" fill="black"/>
<path d="M182.196 70.465C184.849 70.465 186.972 68.3422 186.972 65.6888C186.972 63.0353 184.849 60.9125 182.196 60.9125C179.542 60.9125 177.419 63.0353 177.419 65.6888C177.419 68.3422 179.542 70.465 182.196 70.465Z" fill="#EB3223"/>
</svg>
