<svg width="51" height="37" viewBox="0 0 51 37" fill="none" xmlns="http://www.w3.org/2000/svg">
<path fill-rule="evenodd" clip-rule="evenodd" d="M37.0648 36.1185C37.0648 36.1185 35.5407 34.3199 34.2703 32.7303C39.8172 31.1826 41.9341 27.7526 41.9341 27.7526C40.1982 28.882 38.5468 29.6768 37.0648 30.2206C34.9479 31.099 32.9153 31.6846 30.9254 32.0192C26.8605 32.7722 23.1344 32.563 19.9589 31.9774C17.5453 31.5173 15.4706 30.848 13.7347 30.1787C12.7606 29.8023 11.702 29.3421 10.6438 28.7565C10.5801 28.7147 10.5165 28.6833 10.4531 28.6519C10.3895 28.6206 10.3261 28.5892 10.2625 28.5474C10.1779 28.5055 10.1355 28.4637 10.0931 28.4219C9.3309 28.0036 8.90753 27.7108 8.90753 27.7108C8.90753 27.7108 10.9401 31.0572 16.3173 32.6467C15.0472 34.2362 13.4804 36.1185 13.4804 36.1185C4.12311 35.8257 0.566406 29.7604 0.566406 29.7604C0.566406 16.2913 6.66337 5.37378 6.66337 5.37378C12.7606 0.85618 18.5615 0.981671 18.5615 0.981671L18.9849 1.48362C11.3635 3.65876 7.84894 6.9633 7.84894 6.9633C7.84894 6.9633 8.78054 6.46134 10.3474 5.75024C14.8778 3.78425 18.4769 3.24047 19.9589 3.11498L20.0536 3.09915C20.2672 3.06329 20.457 3.03132 20.6787 3.03132C23.2614 2.69668 26.1831 2.61302 29.2316 2.94766C33.2541 3.40778 37.573 4.57901 41.9765 6.9633C41.9765 6.9633 38.6316 3.82608 31.4334 1.65094L32.0261 0.981671C32.0261 0.981671 37.827 0.85618 43.9243 5.37378C43.9243 5.37378 50.0215 16.2913 50.0215 29.7604C50.0215 29.7604 46.4224 35.8257 37.0648 36.1185ZM18.5684 17.343C16.1739 17.343 14.2835 19.4966 14.2835 22.1235C14.2835 24.7507 16.216 26.9041 18.5684 26.9041C20.9628 26.9041 22.8532 24.7507 22.8532 22.1235C22.8953 19.4966 20.9628 17.343 18.5684 17.343ZM29.6168 22.1235C29.6168 19.4966 31.5069 17.343 33.9016 17.343C36.2961 17.343 38.1862 19.4966 38.1862 22.1235C38.1862 24.7507 36.2961 26.9041 33.9016 26.9041C31.549 26.9041 29.6168 24.7507 29.6168 22.1235Z" fill="#5C6BC0"/>
</svg>
