<svg width="610" height="548" viewBox="0 0 610 548" fill="none" xmlns="http://www.w3.org/2000/svg">
<path d="M511.323 462.888C468.767 482.195 391.024 451.007 334.245 441.981C277.466 433.242 242.279 446.951 230.34 431.471C218.402 415.991 229.769 371.436 209.948 334.364C190.126 297.291 138.659 267.931 119.581 219.206C100.159 170.823 113.126 103.019 153.74 71.2025C194.353 39.6712 263.014 43.7268 299.915 80.8561C337.158 117.586 343.042 187.389 382.399 229.887C422.156 272.044 495.443 287.238 528.346 329.908C561.248 372.578 553.879 443.238 511.323 462.888Z" fill="#A9A9A9"/>
<path d="M102.329 143.348C109.127 131.409 120.265 128.325 139.401 134.894C135.517 126.154 147.113 108.903 165.62 127.182C160.079 97.8785 204.006 94.5083 201.836 122.841C212.803 109.132 241.821 116.957 230.568 133.294C247.533 129.067 254.388 133.009 265.527 143.405H102.329V143.348Z" fill="#FAF6EB"/>
<path d="M232.682 184.932H165.792C163.279 176.307 164.821 166.539 192.125 174.422C200.694 158.485 217.373 174.365 232.682 184.932Z" fill="#FAF6EB"/>
<path d="M568.788 394.285H444.891C448.718 382.86 471.11 373.435 498.985 381.318C507.154 366.181 520.292 368.922 532.63 385.831C548.967 375.663 566.56 390.572 568.788 394.285Z" fill="#FAF6EB"/>
<path fill-rule="evenodd" clip-rule="evenodd" d="M439.235 402.282C428.439 405.709 433.922 415.306 431.18 425.416C430.666 427.301 429.924 429.015 429.181 430.729L428.553 432.099L430.266 434.27L427.353 434.784C427.353 434.784 427.068 435.413 426.953 435.755C426.097 438.097 425.468 440.553 425.697 443.41C426.325 452.435 434.836 458.604 444.261 457.005C448.089 456.376 450.602 455.12 452.373 453.92L451.973 449.236L455.4 450.207C455.4 450.207 457.342 445.409 456.771 440.668C455.971 434.213 452.316 426.73 450.659 421.475C448.66 415.02 450.373 398.74 439.235 402.282Z" fill="#FAF6EB"/>
<path fill-rule="evenodd" clip-rule="evenodd" d="M441.006 421.303L441.349 466.887Z" fill="#FAF6EB"/>
<path d="M441.006 421.303L441.349 466.887" stroke="#1C2628" stroke-width="1.2167" stroke-linecap="round" stroke-linejoin="round"/>
<path d="M220.973 199.613C233.025 207.553 239.766 223.547 232.454 246.396C225.999 266.446 197.039 285.41 224.286 304.089C269.526 335.22 339.844 276.385 358.237 252.508C384.456 218.52 421.414 230.973 414.731 242.683C405.363 259.02 400.279 268.216 424.784 275.242C458.029 284.725 512.295 247.367 523.091 302.261C524.348 308.602 524.176 315.114 524.748 321.511" stroke="#1C2628" stroke-width="1.2167" stroke-linecap="round" stroke-linejoin="round"/>
<path fill-rule="evenodd" clip-rule="evenodd" d="M277.467 242.283C266.499 248.795 255.303 255.021 244.507 261.876C219.088 277.984 233.597 307.459 227.199 316.713C211.091 340.133 179.674 346.873 167.393 373.378C158.824 391.886 174.076 410.336 188.299 420.218C191.041 422.16 194.126 424.788 197.439 424.445C203.894 423.76 209.092 418.219 215.489 417.305C226.857 415.648 238.624 418.79 249.991 416.905C274.039 412.792 297.06 403.938 320.994 399.368C340.415 395.656 360.408 395.484 379.886 392.114C385.37 391.143 391.882 382.175 393.71 378.576C396.795 372.464 399.308 365.952 400.907 359.269C405.477 340.704 410.161 314.2 400.336 296.32C391.025 279.469 366.806 292.093 357.952 277.413C348.298 261.419 332.361 240.341 309.912 241.14C303.914 241.369 297.973 242.797 292.033 243.654" fill="#FAF6EB"/>
<path fill-rule="evenodd" clip-rule="evenodd" d="M271.64 247.995C271.64 246.624 270.669 245.482 269.412 245.482C268.212 245.482 265.471 246.167 265.356 247.538C264.956 251.994 264.1 259.305 264.1 259.305C264.1 259.305 266.442 262.676 268.041 259.305C269.012 257.306 269.069 250.566 269.355 250.566C270.612 250.566 271.64 249.423 271.64 247.995Z" fill="#FAF6EB" stroke="#1C2628" stroke-width="1.2167" stroke-linecap="round" stroke-linejoin="round"/>
<path fill-rule="evenodd" clip-rule="evenodd" d="M392.967 328.08L374.231 353.899L322.993 386.116L286.435 389.372L302.6 372.635L332.989 367.209L334.189 350.015L310.483 324.653L323.849 301.061L331.218 287.98C331.218 287.98 335.56 284.496 351.782 292.836C359.665 296.892 369.604 305.288 377.716 312.886C386.341 320.94 392.967 328.08 392.967 328.08Z" fill="#47584E" stroke="#1C2628" stroke-width="1.2167" stroke-linecap="round" stroke-linejoin="round"/>
<path fill-rule="evenodd" clip-rule="evenodd" d="M377.659 312.886C377.43 316.142 376.573 318.541 375.088 319.283C372.46 320.597 369.204 315.856 357.837 311.515C355.552 310.658 355.21 310.658 346.698 308.373C328.648 303.461 325.163 302.033 323.85 301.061L331.218 287.98C331.218 287.98 335.56 284.496 351.782 292.836C359.608 296.949 369.547 305.346 377.659 312.886Z" fill="#1C2628" stroke="#1C2628" stroke-width="1.2167" stroke-linecap="round" stroke-linejoin="round"/>
<path fill-rule="evenodd" clip-rule="evenodd" d="M269.07 236.399C263.644 234 265.072 224.175 272.44 218.749C279.752 213.322 291.748 216.35 294.775 216.178C311.797 215.321 317.51 233.029 311.912 250.509C310.312 255.592 296.603 268.273 291.062 264.96C285.407 261.59 296.432 245.368 291.633 241.655" fill="#FAF6EB"/>
<path fill-rule="evenodd" clip-rule="evenodd" d="M296.83 256.506L298.944 273.986L305.113 281.811C305.113 281.811 299.229 289.866 289.005 288.666C278.723 287.524 275.581 281.069 275.581 281.069L274.781 258.334L296.83 256.506Z" fill="#A9A9A9" stroke="#1C2628" stroke-width="1.2167" stroke-linecap="round" stroke-linejoin="round"/>
<path fill-rule="evenodd" clip-rule="evenodd" d="M304.771 250.566C304.085 255.764 302.943 260.219 299.458 263.475C295.403 267.302 288.605 269.416 282.893 268.673C274.153 267.531 268.156 262.447 267.185 254.336C266.956 252.622 267.013 250.794 267.242 248.795C267.984 243.083 267.299 231.601 269.012 229.888C271.354 227.945 282.722 225.318 282.722 225.318C282.722 225.318 292.604 229.031 294.717 229.316C299.858 230.402 306.256 239.198 304.771 250.566Z" fill="#47584E" stroke="#1C2628" stroke-width="1.2167" stroke-linecap="round" stroke-linejoin="round"/>
<path fill-rule="evenodd" clip-rule="evenodd" d="M279.294 242.397C277.409 244.682 272.326 248.909 273.182 250.394C274.268 252.336 278.609 250.109 279.009 249.652" fill="#47584E"/>
<path d="M279.294 242.397C277.409 244.682 272.326 248.909 273.182 250.394C274.268 252.336 278.609 250.109 279.009 249.652" stroke="#1C2628" stroke-width="1.2167" stroke-linecap="round" stroke-linejoin="round"/>
<path fill-rule="evenodd" clip-rule="evenodd" d="M299.344 277.07L300.029 260.505C300.029 260.505 286.834 256.735 283.635 261.362C280.436 265.989 286.263 278.841 286.263 278.841L295.916 278.955" fill="#49574E"/>
<path fill-rule="evenodd" clip-rule="evenodd" d="M302.6 242.169C301.972 242.283 304.714 239.598 307.912 243.311C310.14 245.939 307.798 253.365 302.657 250.794" fill="#47584E"/>
<path d="M302.6 242.169C301.972 242.283 304.714 239.598 307.912 243.311C310.14 245.939 307.798 253.365 302.657 250.794" stroke="#1C2628" stroke-width="1.2167" stroke-linecap="round" stroke-linejoin="round"/>
<path d="M305.57 245.368L305.455 245.825L305.113 246.567L304.484 247.253" stroke="#1C2628" stroke-width="1.2167" stroke-linecap="round" stroke-linejoin="round"/>
<path fill-rule="evenodd" clip-rule="evenodd" d="M288.034 268.502L274.21 266.503L274.039 278.67C274.039 278.67 278.952 277.413 283.007 275.071C287.12 272.729 288.034 268.502 288.034 268.502Z" fill="#1C2628" stroke="#1C2628" stroke-width="1.2167" stroke-linecap="round" stroke-linejoin="round"/>
<path fill-rule="evenodd" clip-rule="evenodd" d="M390.91 392.571C387.026 415.191 391.767 443.581 370.061 454.605C355.38 462.088 330.646 460.032 308.997 456.947C297.858 455.348 287.519 453.463 279.865 452.435C266.67 450.664 253.36 451.349 240.279 448.665C233.368 447.237 226.741 445.866 219.887 444.209C215.945 443.238 209.948 445.009 206.349 443.295C203.664 441.981 204.692 427.758 204.064 424.959C203.379 421.874 196.695 409.022 197.724 406.851C198.752 404.681 211.661 402.51 213.718 401.882C230.74 396.798 237.423 391.6 255.245 390.857C262.671 390.572 330.875 388.572 338.129 382.289C343.385 377.719 349.382 370.636 349.497 364.353C349.554 362.353 372.688 368.351 385.084 370.693C389.596 371.55 392.795 372.235 393.309 372.521C396.222 374.235 391.31 390.172 390.91 392.571Z" fill="#EB3223" stroke="#1C2628" stroke-width="1.2167" stroke-linecap="round" stroke-linejoin="round"/>
<path fill-rule="evenodd" clip-rule="evenodd" d="M390.911 392.571C387.027 415.191 391.768 443.581 370.061 454.605C355.381 462.088 330.647 460.032 308.998 456.947C319.851 443.924 345.042 455.634 364.692 437.298C371.375 431.014 366.177 427.073 368.748 419.133C372.232 408.222 364.121 402.167 365.377 392.799C366.577 383.66 375.831 374.863 385.142 370.75C389.654 371.607 392.853 372.293 393.367 372.578C396.223 374.235 391.311 390.172 390.911 392.571Z" fill="#1C2628" stroke="#1C2628" stroke-width="1.2167" stroke-linecap="round" stroke-linejoin="round"/>
<path fill-rule="evenodd" clip-rule="evenodd" d="M347.897 488.936C342.357 495.562 304.142 471.342 294.546 471.685C289.29 471.856 282.093 472.542 273.525 473.513C232.397 478.083 161.394 488.65 141.344 478.425C130.72 472.999 124.036 467.572 120.495 462.374C98.5027 430.1 193.325 403.253 193.325 403.253L205.321 429.186C205.321 429.186 272.496 425.473 296.488 428.843C308.198 430.5 322.078 434.898 322.078 435.013C322.307 440.382 353.438 482.252 347.897 488.936Z" fill="#47584E" stroke="#1C2628" stroke-width="1.2167" stroke-linecap="round" stroke-linejoin="round"/>
<path fill-rule="evenodd" clip-rule="evenodd" d="M273.525 473.513C232.397 478.083 161.394 488.65 141.345 478.425C130.72 472.999 124.037 467.572 120.495 462.374C126.207 457.576 134.547 455.177 141.288 457.233C149.285 459.689 148.314 466.544 155.854 469.4C167.221 473.798 175.961 460.717 192.754 460.603C204.008 460.546 205.664 470.028 217.488 469.743C224.857 469.571 227.028 466.373 234.568 464.659C247.934 461.574 259.53 467.229 266.042 470.085C267.813 470.828 270.612 472.028 273.525 473.513Z" fill="#1C2628" stroke="#1C2628" stroke-width="1.2167" stroke-linecap="round" stroke-linejoin="round"/>
<path fill-rule="evenodd" clip-rule="evenodd" d="M349.498 364.41C349.498 364.41 377.602 250.851 427.927 278.841C462.999 298.32 422.214 404.966 423.7 443.981C424.042 453.634 457.744 467.686 450.433 472.199C443.064 476.769 384.057 465.173 378.744 464.145C378.63 464.145 377.316 444.495 377.316 432.728C377.316 408.508 377.945 368.009 377.945 368.009L349.498 364.41Z" fill="#47584E" stroke="#1C2628" stroke-width="1.2167" stroke-linecap="round" stroke-linejoin="round"/>
<path fill-rule="evenodd" clip-rule="evenodd" d="M310.025 429.472L331.503 476.198L314.767 480.596C314.767 480.596 339.672 494.134 352.067 500.132C355.952 502.017 358.75 502.931 360.807 503.388L320.707 429.129L310.025 429.472Z" fill="#FAF6EB" stroke="#1C2628" stroke-width="1.2167" stroke-linecap="round" stroke-linejoin="round"/>
<path fill-rule="evenodd" clip-rule="evenodd" d="M327.22 428.844L320.708 429.072L360.808 503.331C365.32 504.245 366.12 502.645 366.12 502.645L327.22 428.844Z" fill="#1C2628" stroke="#1C2628" stroke-width="1.2167" stroke-linecap="round" stroke-linejoin="round"/>
<path fill-rule="evenodd" clip-rule="evenodd" d="M457.058 469.571C447.119 460.032 424.67 443.695 424.67 443.695L427.412 458.604L376.116 454.72L376.002 465.116L463.513 477.34C462.542 475.512 460.6 472.999 457.058 469.571Z" fill="#FAF6EB" stroke="#1C2628" stroke-width="1.2167" stroke-linecap="round" stroke-linejoin="round"/>
<path fill-rule="evenodd" clip-rule="evenodd" d="M376.059 465.23L376.002 469.8L464.37 481.91C464.37 481.91 465.455 480.767 463.57 477.397L376.059 465.23Z" fill="#1C2628" stroke="#1C2628" stroke-width="1.2167" stroke-linecap="round" stroke-linejoin="round"/>
<path fill-rule="evenodd" clip-rule="evenodd" d="M340.586 383.489C340.586 383.489 315.395 394.799 295.231 397.084C275.067 399.368 255.474 391.029 255.474 391.029L257.759 353.614L249.476 346.93L234.224 386.63C234.224 386.63 207.777 441.182 181.786 423.474C155.796 405.823 155.339 348.815 153.283 340.533C151.912 335.049 152.026 314.542 150.084 297.806C149.056 289.351 149.341 285.353 149.341 285.353C149.341 285.353 152.94 282.04 156.767 289.694L157.624 299.633L160.423 308.259C160.423 308.259 172.133 300.89 177.502 302.832C182.929 304.774 182.986 313.286 182.986 313.457C182.986 313.457 182.072 315.57 178.645 313.857C176.931 313 174.589 308.716 174.589 308.716L169.562 314.771L170.762 323.625L175.903 320.94C175.903 320.94 176.931 318.712 178.873 316.941C180.815 315.114 183.614 316.142 183.614 316.142L181.672 326.195L174.075 332.421L190.526 379.547C190.526 379.547 190.869 378.976 191.497 377.948C195.153 371.721 208.234 348.587 214.689 325.167C220.972 302.547 236.795 295.921 242.05 294.321C243.135 293.978 243.764 293.864 243.764 293.864L324.877 292.208L329.504 347.273L340.586 383.489Z" fill="#47584E" stroke="#1C2628" stroke-width="1.2167" stroke-linecap="round" stroke-linejoin="round"/>
<path fill-rule="evenodd" clip-rule="evenodd" d="M245.592 306.088C239.023 312.486 228.341 318.769 224.971 325.167C220.744 333.05 223.829 335.677 220.116 350.529C218.174 358.355 216.46 364.981 211.262 371.379C207.206 376.291 198.923 383.603 194.011 381.261C193.268 380.918 192.297 380.176 191.44 377.948C195.096 371.721 208.177 348.587 214.632 325.167C220.915 302.547 236.738 295.921 241.993 294.321C242.279 294.15 242.622 293.978 242.907 293.864L245.592 306.088Z" fill="#1C2628" stroke="#1C2628" stroke-width="1.2167" stroke-linecap="round" stroke-linejoin="round"/>
<path d="M150.484 337.734C113.926 358.583 184.529 359.783 186.642 334.478" stroke="#1C2628" stroke-width="1.2167" stroke-linecap="round" stroke-linejoin="round"/>
<path fill-rule="evenodd" clip-rule="evenodd" d="M335.788 343.503C334.531 344.588 332.932 345.331 330.932 345.731C325.163 346.988 295.06 350.072 274.781 352.129C274.61 352.129 274.381 352.186 274.21 352.186C263.585 353.271 255.817 354.014 255.817 354.014C255.817 354.014 254.446 353.785 252.732 352.586C250.047 350.758 246.506 346.588 245.992 337.391C245.592 330.536 247.477 314.828 247.477 314.828L245.592 306.145L242.907 293.921V293.807C242.907 293.807 257.416 290.78 264.842 286.038C272.325 281.297 272.725 274.9 272.725 274.9L301.115 272.558L301.971 272.5C301.971 272.5 305.056 276.67 310.083 279.755C310.882 280.212 311.682 280.669 312.539 281.069C313.91 281.697 315.395 282.211 316.994 282.497C318.023 282.725 319.108 282.897 320.193 283.125C327.733 284.61 336.302 286.324 336.302 286.324L328.99 304.946C328.99 304.946 335.159 315.056 336.93 320.883C340.357 332.25 340.186 339.79 335.788 343.503Z" fill="#EB3223" stroke="#1C2628" stroke-width="1.2167" stroke-linecap="round" stroke-linejoin="round"/>
<path d="M379.143 353.557L377.544 372.75" stroke="#1C2628" stroke-width="1.2167" stroke-linecap="round" stroke-linejoin="round"/>
<path d="M230.056 392.457C237.424 389.886 249.591 388.63 249.591 388.63C249.591 388.63 248.62 396.741 267.985 400.34C287.349 403.938 302.658 401.482 302.658 401.482" stroke="#1C2628" stroke-width="1.2167" stroke-linecap="round" stroke-linejoin="round"/>
<path fill-rule="evenodd" clip-rule="evenodd" d="M277.98 210.066C277.98 205.382 282.036 201.555 287.063 201.555C292.09 201.555 296.145 205.382 296.145 210.066C296.145 214.75 292.09 218.577 287.063 218.577C282.036 218.52 277.98 214.75 277.98 210.066Z" fill="#FAF6EB"/>
<path fill-rule="evenodd" clip-rule="evenodd" d="M269.069 242.169C271.011 243.14 273.582 242.511 275.353 241.312Z" fill="#47584E"/>
<path d="M269.069 242.169C271.011 243.14 273.582 242.511 275.353 241.312" stroke="#1C2628" stroke-width="1.2167" stroke-linecap="round" stroke-linejoin="round"/>
<path fill-rule="evenodd" clip-rule="evenodd" d="M286.892 240.626C290.262 242.283 291.861 241.369 295.117 239.827Z" fill="#47584E"/>
<path d="M286.892 240.626C290.262 242.283 291.861 241.369 295.117 239.827" stroke="#1C2628" stroke-width="1.2167" stroke-linecap="round" stroke-linejoin="round"/>
<path d="M177.504 433.47C172.705 433.185 167.393 435.355 163.052 437.64C161.395 438.497 156.883 441.639 158.539 440.839C177.846 431.3 199.953 427.987 221.145 427.473" stroke="#1C2628" stroke-width="1.2167" stroke-linecap="round" stroke-linejoin="round"/>
<path d="M165.051 468.029C166.422 477.397 182.073 472.256 187.271 470.828C197.725 467.858 208.064 463.973 218.803 461.917C234.625 458.833 250.562 460.832 265.985 464.773" stroke="#1C2628" stroke-width="1.2167" stroke-linecap="round" stroke-linejoin="round"/>
<path d="M233.025 468.6C240.623 467.115 245.307 468.6 253.018 469.172" stroke="#1C2628" stroke-width="1.2167" stroke-linecap="round" stroke-linejoin="round"/>
<path d="M428.44 305.745C424.955 312.486 416.673 324.482 422.613 332.593C427.811 339.733 433.01 326.595 431.239 325.852C429.468 325.11 429.354 329.223 428.725 331.051C427.012 335.792 425.298 340.59 424.213 345.502C421.757 356.87 420.043 385.202 419.243 395.484" stroke="#1C2628" stroke-width="1.2167" stroke-linecap="round" stroke-linejoin="round"/>
<path d="M425.526 370.922C425.526 385.202 420.557 407.08 419.528 414.334" stroke="#1C2628" stroke-width="1.2167" stroke-linecap="round" stroke-linejoin="round"/>
<path fill-rule="evenodd" clip-rule="evenodd" d="M153.684 319.855C154.369 315.114 157.511 310.944 161.167 308.202Z" fill="#47584E"/>
<path d="M153.684 319.855C154.369 315.114 157.511 310.944 161.167 308.202" stroke="#1C2628" stroke-width="1.2167" stroke-linecap="round" stroke-linejoin="round"/>
<path fill-rule="evenodd" clip-rule="evenodd" d="M281.579 213.665H292.204C293.632 213.665 294.774 214.807 294.774 216.235C294.774 217.663 293.632 218.806 292.204 218.806H281.579C280.151 218.806 279.009 217.663 279.009 216.235C279.009 214.807 280.151 213.665 281.579 213.665Z" fill="#A9A9A9" stroke="#1C2628" stroke-width="1.2167" stroke-linecap="round" stroke-linejoin="round"/>
<path fill-rule="evenodd" clip-rule="evenodd" d="M292.319 360.068C294.318 361.097 325.678 379.947 325.678 379.947C331.39 383.945 327.334 387.544 323.336 393.313L320.308 397.769C316.31 403.481 309.113 397.369 303.4 393.313L279.295 378.062C275.353 373.949 290.319 359.097 292.319 360.068Z" fill="#1C2628" stroke="#1C2628" stroke-width="1.2167" stroke-linecap="round" stroke-linejoin="round"/>
<path fill-rule="evenodd" clip-rule="evenodd" d="M340.301 336.42L346.813 356.584C340.815 365.495 325.62 370.236 325.62 370.236C325.62 370.236 309.912 370.522 305.685 374.349C301.229 378.405 321.222 376.177 319.394 377.434C315.738 379.947 310.083 384.003 310.083 384.003L299.63 386.516C299.63 386.516 287.691 383.888 284.721 383.431C281.751 382.975 279.009 385.831 279.009 385.831C279.009 385.831 295.688 393.771 300.944 393.371C324.192 391.543 332.018 388.173 332.018 388.173L343.385 383.66L349.783 365.724" fill="#47584E"/>
<path d="M340.301 336.42L346.813 356.584C340.815 365.495 325.62 370.236 325.62 370.236C325.62 370.236 309.912 370.522 305.685 374.349C301.229 378.405 321.222 376.177 319.394 377.434C315.738 379.947 310.083 384.003 310.083 384.003L299.63 386.516C299.63 386.516 287.691 383.888 284.721 383.431C281.751 382.975 279.009 385.831 279.009 385.831C279.009 385.831 295.688 393.771 300.944 393.371C324.192 391.543 332.018 388.173 332.018 388.173L343.385 383.66L349.783 365.724" stroke="#FAF6EB" stroke-width="1.2167" stroke-linecap="round" stroke-linejoin="round"/>
<path d="M349.555 364.638L337.159 400.111" stroke="#1C2628" stroke-width="1.2167" stroke-linecap="round" stroke-linejoin="round"/>
<path d="M314.767 416.219C316.08 421.475 322.592 425.873 325.905 430.329" stroke="#1C2628" stroke-width="1.2167" stroke-linecap="round" stroke-linejoin="round"/>
<path fill-rule="evenodd" clip-rule="evenodd" d="M303.228 245.368C303.228 243.997 304.199 242.854 305.455 242.854C306.655 242.854 309.397 243.54 309.511 244.911C309.911 249.366 310.768 256.678 310.768 256.678C310.768 256.678 308.426 260.048 306.826 256.678C305.855 254.678 305.798 247.938 305.455 247.938C304.256 247.881 303.228 246.738 303.228 245.368Z" fill="#FAF6EB" stroke="#1C2628" stroke-width="1.2167" stroke-linecap="round" stroke-linejoin="round"/>
<path d="M69.3137 352.014C66.3433 366.409 66.4576 383.546 74.626 395.713C82.8516 407.994 98.4459 417.705 113.298 417.59C138.831 417.476 160.995 393.828 186.471 395.142C198.981 395.77 203.608 413.478 212.176 422.617" stroke="#1C2628" stroke-width="1.2167" stroke-linecap="round" stroke-linejoin="round"/>
<path d="M425.526 258.391C439.236 281.297 505.611 232.915 531.773 279.526" stroke="#1C2628" stroke-width="1.2167" stroke-linecap="round" stroke-linejoin="round"/>
<path d="M454.658 286.61C480.306 286.724 507.21 272.672 512.751 312.372" stroke="#1C2628" stroke-width="1.2167" stroke-linecap="round" stroke-linejoin="round"/>
<path d="M211.833 204.411C219.03 210.98 223.315 217.835 225.371 230.973" stroke="#1C2628" stroke-width="1.2167" stroke-linecap="round" stroke-linejoin="round"/>
<path d="M212.518 218.52C225.028 240.112 213.375 253.307 206.178 268.673" stroke="#1C2628" stroke-width="1.2167" stroke-linecap="round" stroke-linejoin="round"/>
<path d="M80.6807 390.115C90.2772 406.566 111.298 411.364 127.121 408.794" stroke="#1C2628" stroke-width="1.2167" stroke-linecap="round" stroke-linejoin="round"/>
<path d="M81.8232 416.219C101.016 434.727 125.921 425.759 139.174 421.76" stroke="#1C2628" stroke-width="1.2167" stroke-linecap="round" stroke-linejoin="round"/>
<path d="M377.774 448.95C377.774 448.95 373.318 453.52 368.806 455.177C364.35 456.89 355.096 459.061 351.555 459.29" stroke="#1C2628" stroke-width="1.2167" stroke-linecap="round" stroke-linejoin="round"/>
<path fill-rule="evenodd" clip-rule="evenodd" d="M338.244 355.956C330.818 361.782 325.62 362.353 322.135 361.725C318.48 361.04 317.451 359.212 311.682 357.041C310.026 356.413 304.542 354.471 298.201 354.299C286.891 354.014 281.522 359.554 277.352 356.47C276.381 355.784 275.352 354.528 274.781 352.071C295.06 350.072 325.163 346.93 330.932 345.674C332.931 345.274 334.531 344.531 335.788 343.446C337.558 347.959 338.072 352.643 338.244 355.956Z" fill="#1C2628" stroke="#1C2628" stroke-width="1.2167" stroke-linecap="round" stroke-linejoin="round"/>
<path fill-rule="evenodd" clip-rule="evenodd" d="M335.045 365.438L329.39 346.017C329.39 346.017 335.216 344.931 336.644 343.503C338.072 342.075 339.729 336.706 339.729 336.706L346.412 356.527C346.412 356.527 344.584 359.897 341.043 361.897C337.444 363.953 335.045 365.438 335.045 365.438Z" fill="#1C2628"/>
<path fill-rule="evenodd" clip-rule="evenodd" d="M360.522 429.872C362.007 430.671 358.694 436.726 354.467 439.068C351.383 440.782 348.127 440.382 348.641 438.326C348.984 436.955 350.869 435.298 351.84 434.441C354.753 431.871 359.323 429.243 360.522 429.872Z" fill="#1C2628" stroke="#1C2628" stroke-width="1.2167" stroke-linecap="round" stroke-linejoin="round"/>
<path fill-rule="evenodd" clip-rule="evenodd" d="M361.435 415.134C360.236 414.277 361.207 410.165 362.806 409.765C363.377 409.65 364.006 410.05 364.291 410.222C365.091 410.736 365.662 411.707 365.605 412.621C365.434 414.62 362.406 415.877 361.435 415.134Z" fill="#1C2628" stroke="#1C2628" stroke-width="1.2167" stroke-linecap="round" stroke-linejoin="round"/>
<path d="M176.932 143.348H265.528" stroke="#1C2628" stroke-width="1.2167" stroke-linecap="round" stroke-linejoin="round"/>
<path d="M216.403 151.002H279.009" stroke="#1C2628" stroke-width="1.2167" stroke-linecap="round" stroke-linejoin="round"/>
<path d="M157.453 184.932H209.149" stroke="#1C2628" stroke-width="1.2167" stroke-linecap="round" stroke-linejoin="round"/>
<path d="M176.932 190.073H223.143" stroke="#1C2628" stroke-width="1.2167" stroke-linecap="round" stroke-linejoin="round"/>
<path d="M111.813 394.684L112.098 394.627L111.47 412.507C110.385 411.821 108.728 411.707 107.129 412.335C104.787 413.306 103.473 415.477 104.215 417.191C104.901 418.961 107.357 419.59 109.699 418.676C112.041 417.762 113.355 415.591 112.612 413.82C112.612 413.763 112.555 413.706 112.498 413.649L113.126 394.399L131.063 390.457L130.434 408.108C129.349 407.366 127.635 407.251 126.036 407.88C123.694 408.794 122.38 410.964 123.066 412.735C123.751 414.506 126.207 415.134 128.549 414.22C130.891 413.306 132.205 411.136 131.463 409.365L131.406 409.308L132.034 390.229L148.142 386.687L147.571 403.139C146.486 402.453 144.829 402.282 143.173 402.967C140.831 403.881 139.517 406.052 140.259 407.823C140.945 409.593 143.401 410.222 145.743 409.308C148.085 408.394 149.399 406.223 148.656 404.452C148.656 404.395 148.599 404.395 148.599 404.338L149.228 386.516L149.57 386.459L149.799 380.632L111.813 389.772V394.684Z" fill="#1C2628" stroke="#1C2628" stroke-width="1.2167" stroke-linecap="round" stroke-linejoin="round"/>
<path d="M91.706 383.317C86.7364 385.316 82.7378 385.602 79.7675 384.231C79.2534 384.003 78.7964 383.66 78.3966 383.374C80.2245 383.603 82.1095 382.86 83.252 381.261C84.9085 378.919 84.3944 375.663 82.0524 374.006C79.7104 372.35 76.4544 372.864 74.7979 375.206C73.1985 377.434 73.6555 380.404 75.6547 382.175C76.4544 383.374 77.654 384.574 79.2534 385.316C82.1095 386.687 85.8224 386.573 90.278 385.088L71.085 411.878L72.056 412.564L92.3343 384.231C92.5057 384.003 92.5057 383.717 92.3343 383.546C92.2201 383.317 91.9345 383.203 91.706 383.317Z" fill="#1C2628" stroke="#1C2628" stroke-width="1.2167" stroke-linecap="round" stroke-linejoin="round"/>
<path d="M463.285 275.014C463.285 275.014 446.491 284.439 459.629 294.035C455.002 284.325 468.083 275.414 468.083 275.414C461.114 268.045 468.426 267.645 472.539 261.247C479.108 251.08 468.997 249.709 468.997 249.709C474.195 256.792 462.428 258.791 459.172 265.017C456.202 270.73 459.686 273.357 463.285 275.014Z" fill="#1C2628" stroke="#1C2628" stroke-width="1.2167" stroke-linecap="round" stroke-linejoin="round"/>
<path fill-rule="evenodd" clip-rule="evenodd" d="M260.216 298.891C259.588 299.291 259.473 300.833 259.702 302.261C258.845 301.576 257.931 301.004 257.303 300.947C255.532 300.833 256.046 302.49 257.189 304.032C256.332 303.918 255.589 303.975 255.075 304.203C253.304 305.003 255.018 306.431 257.074 307.231C256.046 307.631 255.132 308.202 254.789 308.773C253.761 310.43 255.932 310.658 258.103 310.201C257.474 311.115 257.017 312.029 257.017 312.714C257.074 314.657 259.016 313.686 260.559 312.086C260.502 313.171 260.673 314.2 261.016 314.771C262.101 316.37 263.243 314.485 263.643 312.315C264.215 313.229 264.9 314.085 265.528 314.314C267.356 315.056 267.185 312.829 266.385 310.829C267.356 311.286 268.384 311.629 269.07 311.515C271.012 311.172 269.698 309.344 267.87 308.145C268.956 308.03 269.984 307.688 270.441 307.231C271.869 305.86 269.755 305.117 267.585 305.06C268.442 304.375 269.07 303.518 269.241 302.889C269.698 300.947 267.528 301.461 265.643 302.604C265.928 301.576 266.1 300.49 265.871 299.862C265.186 298.034 263.643 299.633 262.729 301.576C262.444 300.547 261.93 299.576 261.416 299.177C260.901 298.72 260.502 298.662 260.216 298.891ZM261.815 305.746C262.101 305.803 262.387 305.688 262.558 305.517C262.787 305.746 263.072 305.803 263.301 305.746C263.415 306.031 263.586 306.26 263.758 306.374C263.643 306.659 263.7 306.945 263.815 307.174C263.586 307.402 263.472 307.631 263.472 307.859C263.129 307.916 262.901 308.03 262.787 308.259C262.501 308.145 262.215 308.088 261.987 308.202C261.815 307.916 261.587 307.802 261.358 307.745C261.358 307.402 261.301 307.174 261.073 307.002C261.244 306.774 261.301 306.545 261.244 306.317C261.587 306.145 261.701 305.974 261.815 305.746Z" fill="#FAF6EB" stroke="#1C2628" stroke-width="1.2167" stroke-linecap="round" stroke-linejoin="round"/>
<path fill-rule="evenodd" clip-rule="evenodd" d="M298.716 311.229C297.745 311.915 297.574 314.2 297.916 316.542C296.602 315.456 295.174 314.599 294.146 314.542C291.404 314.371 292.204 316.941 293.975 319.341C292.661 319.169 291.462 319.226 290.719 319.569C287.92 320.826 290.605 323.053 293.804 324.253C292.204 324.881 290.776 325.738 290.262 326.652C288.605 329.223 292.09 329.622 295.403 328.88C294.432 330.251 293.689 331.736 293.689 332.821C293.746 335.906 296.831 334.306 299.23 331.85C299.173 333.564 299.344 335.163 299.973 336.077C301.686 338.591 303.4 335.62 304.085 332.25C304.942 333.735 306.028 334.992 306.999 335.392C309.798 336.591 309.626 333.107 308.312 329.965C309.855 330.708 311.454 331.165 312.482 330.993C315.51 330.422 313.396 327.623 310.597 325.681C312.311 325.453 313.853 324.996 314.653 324.253C316.881 322.139 313.625 320.94 310.198 320.826C311.511 319.74 312.54 318.484 312.825 317.455C313.511 314.485 310.14 315.228 307.227 317.056C307.741 315.399 307.913 313.8 307.57 312.771C306.542 309.915 304.085 312.372 302.657 315.456C302.143 313.8 301.458 312.372 300.601 311.686C299.744 310.944 299.116 310.886 298.716 311.229ZM301.115 321.968C301.629 322.025 302.029 321.911 302.315 321.683C302.715 322.025 303.057 322.139 303.457 322.082C303.628 322.539 303.857 322.882 304.2 323.053C304.085 323.51 304.143 323.91 304.314 324.253C303.914 324.596 303.743 324.938 303.743 325.338C303.229 325.395 302.886 325.624 302.657 325.91C302.2 325.681 301.801 325.681 301.458 325.795C301.172 325.395 300.887 325.11 300.487 325.053C300.487 324.539 300.373 324.139 300.087 323.91C300.315 323.568 300.43 323.168 300.373 322.825C300.772 322.596 301.001 322.311 301.115 321.968Z" fill="#FAF6EB" stroke="#1C2628" stroke-width="1.2167" stroke-linecap="round" stroke-linejoin="round"/>
<path fill-rule="evenodd" clip-rule="evenodd" d="M271.639 347.787C272.953 346.702 273.981 345.445 274.21 344.417C274.895 341.447 271.525 342.189 268.612 344.017C269.126 342.361 269.297 340.761 268.955 339.733C267.926 336.877 265.47 339.333 264.042 342.418C263.528 340.761 262.843 339.276 261.986 338.648C261.186 338.077 260.615 338.02 260.158 338.305C259.187 338.991 259.015 341.276 259.358 343.618C258.044 342.532 256.616 341.675 255.588 341.618C252.846 341.447 253.646 344.017 255.417 346.416C254.103 346.245 252.903 346.302 252.104 346.645C249.305 347.959 251.989 350.129 255.188 351.329C254.274 351.672 253.417 352.129 252.732 352.586C254.446 353.785 255.817 354.014 255.817 354.014C255.817 354.014 263.585 353.271 274.21 352.186C275.01 351.957 275.638 351.615 276.038 351.215C278.266 349.101 275.067 347.902 271.639 347.787ZM265.242 352.414C264.728 352.471 264.385 352.7 264.156 352.986C263.699 352.757 263.3 352.757 262.957 352.871C262.671 352.414 262.386 352.186 261.986 352.129C261.986 351.615 261.872 351.272 261.586 350.986C261.814 350.644 261.929 350.244 261.872 349.901C262.271 349.672 262.5 349.387 262.614 349.044C263.128 349.101 263.528 348.987 263.814 348.701C264.214 349.044 264.613 349.158 264.956 349.101C265.128 349.558 265.356 349.901 265.699 350.072C265.584 350.529 265.642 350.929 265.813 351.272C265.47 351.672 265.299 352.014 265.242 352.414Z" fill="#FAF6EB" stroke="#1C2628" stroke-width="1.2167" stroke-linecap="round" stroke-linejoin="round"/>
<path fill-rule="evenodd" clip-rule="evenodd" d="M318.937 283.297C319.394 283.239 319.794 283.182 320.251 283.068C319.166 282.84 318.08 282.611 317.052 282.44C315.453 282.097 313.968 281.64 312.597 281.012C312.54 281.354 312.597 281.697 312.768 281.983C312.368 282.325 312.197 282.668 312.197 283.068C311.683 283.125 311.34 283.354 311.112 283.639C310.655 283.411 310.255 283.411 309.912 283.525C309.626 283.068 309.341 282.84 308.941 282.782C308.941 282.268 308.827 281.926 308.541 281.64C308.77 281.297 308.884 280.897 308.827 280.555C309.226 280.326 309.455 280.041 309.569 279.698C309.798 279.698 309.969 279.698 310.14 279.698C305.057 276.67 302.029 272.443 302.029 272.443L301.172 272.5C300.201 273.186 300.944 275.185 302.372 277.013C301.058 276.842 299.858 276.899 299.059 277.242C296.26 278.498 298.945 280.726 302.143 281.926C300.544 282.554 299.116 283.411 298.602 284.268C296.945 286.895 300.43 287.238 303.743 286.495C302.772 287.866 302.029 289.351 302.029 290.437C302.086 293.521 305.171 291.922 307.57 289.466C307.513 291.179 307.684 292.779 308.313 293.693C310.026 296.206 311.74 293.236 312.425 289.866C313.282 291.351 314.367 292.607 315.339 293.007C318.195 294.207 317.966 290.722 316.652 287.581C318.195 288.323 319.794 288.78 320.822 288.609C323.793 288.038 321.736 285.239 318.937 283.297Z" fill="#FAF6EB" stroke="#1C2628" stroke-width="1.2167" stroke-linecap="round" stroke-linejoin="round"/>
<path d="M294.66 344.817C294.089 345.617 294.261 346.759 294.889 347.559C295.46 348.358 296.374 348.815 297.288 349.215C298.887 349.901 300.658 350.358 302.372 350.472" stroke="#1C2628" stroke-width="1.2167" stroke-linecap="round" stroke-linejoin="round"/>
<path d="M323.45 299.234C323.622 301.804 325.164 304.26 327.449 305.46" stroke="#1C2628" stroke-width="1.2167" stroke-linecap="round" stroke-linejoin="round"/>
<path d="M326.419 297.234C326.076 299.234 327.676 303.746 328.99 305.231" stroke="#1C2628" stroke-width="1.2167" stroke-linecap="round" stroke-linejoin="round"/>
<path d="M250.334 311.972C250.334 313.685 248.906 315.228 247.249 315.456" stroke="#1C2628" stroke-width="1.2167" stroke-linecap="round" stroke-linejoin="round"/>
<path d="M268.384 281.64C269.755 283.182 271.64 284.153 273.639 284.382C277.695 284.839 281.522 282.383 285.578 282.44C289.29 282.497 292.775 284.61 296.488 284.268" stroke="#1C2628" stroke-width="1.2167" stroke-linecap="round" stroke-linejoin="round"/>
<path d="M271.354 277.413C271.126 278.156 271.925 278.784 272.668 279.07C278.095 281.183 284.207 277.527 289.919 278.498" stroke="#1C2628" stroke-width="1.2167" stroke-linecap="round" stroke-linejoin="round"/>
<path fill-rule="evenodd" clip-rule="evenodd" d="M184.985 262.79C179.273 260.562 175.846 253.25 177.959 249.252C180.53 244.282 191.954 243.482 196.238 249.252C198.409 252.165 199.095 257.249 196.238 260.676C193.268 264.275 188.07 263.989 184.985 262.79Z" fill="#FAF6EB"/>
<path fill-rule="evenodd" clip-rule="evenodd" d="M447.004 365.267C444.263 362.182 445.919 353.614 451.631 350.529C459.114 346.531 468.654 354.356 468.368 358.64C468.082 364.181 451.231 370.008 447.004 365.267Z" fill="#1C2628" stroke="#1C2628" stroke-width="1.2167" stroke-linecap="round" stroke-linejoin="round"/>
<path fill-rule="evenodd" clip-rule="evenodd" d="M466.368 460.203C464.026 458.89 463.683 454.605 465.34 453.12C467.511 451.178 473.28 453.692 473.451 456.148C473.623 458.433 469.167 461.746 466.368 460.203Z" fill="#1C2628" stroke="#1C2628" stroke-width="1.2167" stroke-linecap="round" stroke-linejoin="round"/>
<path d="M137.289 278.327L116.782 266.503L137.289 254.621V278.327Z" fill="#1C2628" stroke="#1C2628" stroke-width="1.2167" stroke-linecap="round" stroke-linejoin="round"/>
<path d="M335.273 227.374L374.174 204.925L335.273 182.476V227.374Z" fill="#1C2628" stroke="#1C2628" stroke-width="1.2167" stroke-linecap="round" stroke-linejoin="round"/>
<path d="M291.575 254.393C293.626 254.393 295.288 253.114 295.288 251.537C295.288 249.959 293.626 248.681 291.575 248.681C289.525 248.681 287.862 249.959 287.862 251.537C287.862 253.114 289.525 254.393 291.575 254.393Z" fill="#FAF6EB"/>
<path d="M268.156 248.681C270.213 248.681 271.869 249.937 271.869 251.537C271.869 253.136 270.213 254.393 268.156 254.393" fill="#FAF6EB"/>
<path d="M286.149 223.547C286.149 223.547 283.293 227.545 287.863 229.83C292.433 232.115 295.46 230.973 297.002 233.829C301.001 241.255 307.284 237.827 307.284 237.827" stroke="#FAF6EB" stroke-width="1.2167" stroke-linecap="round" stroke-linejoin="round"/>
</svg>
