<svg width="415" height="491" viewBox="0 0 415 491" fill="none" xmlns="http://www.w3.org/2000/svg">
<path fill-rule="evenodd" clip-rule="evenodd" d="M317.621 392.294C315.284 416.026 272.375 432.206 215.143 433.585C215.083 433.585 214.963 433.585 214.903 433.585C201.239 433.884 186.736 433.405 171.754 431.967C141.31 429.03 113.503 422.618 91.0901 414.108C81.9809 410.692 73.8306 406.916 66.6991 402.901C46.5631 391.515 35.0567 378.211 36.3152 364.966C38.9521 337.939 94.2064 320.739 163.364 323.975C169.537 324.275 175.829 324.694 182.182 325.354C213.225 328.35 241.571 335.002 264.164 343.692C298.144 356.696 319.359 374.555 317.621 392.294Z" fill="#1C2628" stroke="#1C2628" stroke-width="1.27648" stroke-linecap="round" stroke-linejoin="round"/>
<path d="M331.462 373.896C338.773 382.885 339.492 390.736 339.073 400.804C337.694 433.165 293.767 440.177 269.256 447.428" stroke="#1C2628" stroke-width="1.27648" stroke-linecap="round" stroke-linejoin="round"/>
<path d="M86.8942 311.929C51.5362 317.862 9.04674 341.055 21.9314 383.245" stroke="#1C2628" stroke-width="1.27648" stroke-linecap="round" stroke-linejoin="round"/>
<path d="M243.85 401.343C245.708 398.766 245.408 400.444 243.25 400.923C235.52 402.661 227.789 404.699 220.118 406.736C210.41 409.313 202.139 415.606 193.21 420.16" stroke="#1C2628" stroke-width="1.27648" stroke-linecap="round" stroke-linejoin="round"/>
<path fill-rule="evenodd" clip-rule="evenodd" d="M291.308 310.611C326.905 272.676 235.214 94.6274 178.402 128.907C158.745 138.076 150.715 153.597 142.864 171.875C123.807 241.812 40.2661 218.44 37.7491 293.95C33.0147 404.159 253.193 391.694 291.308 310.611Z" fill="#A9A9A9"/>
<path fill-rule="evenodd" clip-rule="evenodd" d="M85.3932 181.404C98.4576 179.307 110.923 177.988 107.327 196.566C106.848 199.083 103.252 214.785 90.607 216.523C64.9575 220.658 59.6238 184.94 85.3932 181.404Z" fill="#A9A9A9"/>
<path fill-rule="evenodd" clip-rule="evenodd" d="M124.108 177.329C118.594 181.224 108.107 175.831 111.583 168.579C114.279 153.418 144.004 170.497 124.108 177.329Z" fill="#A9A9A9"/>
<path d="M129.2 263.566C131.058 267.941 132.976 272.735 131.777 277.35C130.819 281.185 127.882 284.241 124.946 286.878C123.447 288.197 121.889 289.575 119.971 290.114C118.054 290.714 115.717 290.354 114.458 288.796C113.08 287.118 113.439 284.541 114.458 282.623C115.237 281.125 116.556 279.807 118.174 279.327C120.99 278.488 123.987 280.586 125.125 283.283C126.264 285.979 125.964 289.036 125.365 291.912C122.908 303.658 116.256 313.966 109.724 324.034" stroke="#1C2628" stroke-width="1.27648" stroke-linecap="round" stroke-linejoin="round"/>
<path fill-rule="evenodd" clip-rule="evenodd" d="M94.9822 249.963C101.934 250.802 110.684 239.355 100.436 238.217C97.2595 239.355 90.7273 248.525 93.9035 249.723" fill="#FAF6EB"/>
<path fill-rule="evenodd" clip-rule="evenodd" d="M163.782 172.774C156.291 174.332 153.295 181.104 156.95 188.176C157.969 190.154 163.962 198.783 169.356 197.825C171.932 197.345 180.143 198.484 178.525 178.887C177.506 171.216 173.79 170.737 163.782 172.774Z" fill="#EB3223" stroke="#1C2628" stroke-width="1.27648" stroke-linecap="round" stroke-linejoin="round"/>
<path fill-rule="evenodd" clip-rule="evenodd" d="M277.288 286.279C268.238 316.603 222.692 386.36 219.456 397.926L218.977 395.949C208.729 399.544 149.939 400.084 130.702 381.566C128.784 379.708 127.286 377.73 126.207 375.453L142.148 335.78C141.189 337.159 131.781 328.829 142.748 305.816C145.744 299.523 151.977 282.504 151.977 282.504C152.456 279.927 153.834 269.919 155.512 257.693C155.273 257.274 155.213 257.034 155.213 257.034C149.939 253.438 130.163 254.876 125.668 239.415C125.009 237.078 124.649 234.321 124.769 231.085C124.889 227.489 127.106 225.811 129.623 225.092C132.08 224.373 134.837 224.493 136.215 224.612C143.646 225.032 150.898 227.789 157.79 230.665C158.269 230.845 158.689 231.085 159.168 231.265C161.505 214.425 163.723 199.802 164.442 199.023C165.64 197.704 166.779 196.386 167.918 195.127C171.513 191.172 175.169 188.176 181.342 190.453C185.357 191.891 189.252 193.449 192.968 195.247C200.818 199.023 207.95 203.817 213.643 210.949C219.277 217.96 224.37 225.511 228.206 233.602C231.682 240.913 233.959 248.884 235.397 256.794C236.416 262.188 237.135 267.821 236.776 273.335C236.716 274.713 236.536 276.031 236.296 277.41C235.218 283.462 233.719 289.395 232.041 295.268L277.288 286.279Z" fill="#EB3223" stroke="#1C2628" stroke-width="1.27648" stroke-linecap="round" stroke-linejoin="round"/>
<path fill-rule="evenodd" clip-rule="evenodd" d="M130.702 381.567C128.784 379.709 127.286 377.731 126.207 375.454L142.148 335.781C141.19 337.16 131.781 328.829 142.748 305.817C145.744 299.524 151.977 282.505 151.977 282.505C152.456 279.928 153.834 269.919 155.512 257.694C155.273 257.275 155.213 257.035 155.213 257.035C149.939 253.439 130.163 254.877 125.668 239.416C130.043 240.195 134.717 241.633 139.691 243.131C149.639 246.128 155.632 247.926 158.809 253.499C162.524 259.971 157.91 263.567 160.966 278.849C161.865 283.463 162.764 285.381 163.903 292.153C165.221 299.944 165.82 303.899 164.682 306.836C161.805 314.087 153.355 314.806 153.475 319.361C153.535 322.058 156.531 323.136 159.588 326.013C159.588 326.013 167.738 333.564 168.397 347.287C169.236 364.607 146.343 384.623 130.702 381.567Z" fill="#FAF6EB"/>
<path fill-rule="evenodd" clip-rule="evenodd" d="M236.836 273.395C232.941 276.691 228.686 279.268 224.071 280.706C211.546 284.661 198.602 279.687 187.515 275.372C178.765 271.956 168.218 267.941 165.521 259.012C164.023 254.038 165.94 250.921 163.064 247.266C159.768 243.19 155.393 244.749 147.602 241.393C139.931 238.097 135.437 232.763 133.759 230.725C132.44 229.167 131.002 227.19 129.684 225.032C132.141 224.313 134.897 224.433 136.276 224.553C143.707 224.972 150.958 227.729 157.85 230.605C158.33 230.785 158.749 231.025 159.228 231.205C161.566 214.365 163.783 199.742 164.502 198.963C165.701 197.645 166.839 196.326 167.978 195.068C176.009 194.528 184.578 194.588 193.088 195.188C200.939 198.963 208.07 203.757 213.764 210.889C219.397 217.901 224.491 225.452 228.326 233.542C231.802 240.853 234.079 248.824 235.518 256.734C236.477 262.248 237.256 267.881 236.836 273.395Z" fill="#1C2628" stroke="#1C2628" stroke-width="1.27648" stroke-linecap="round" stroke-linejoin="round"/>
<path fill-rule="evenodd" clip-rule="evenodd" d="M142.388 380.367C144.845 378.15 147.242 375.813 149.459 373.356C130.822 362.089 130.642 352.98 130.642 352.98L91.0889 414.047C110.386 421.359 133.698 427.112 159.168 430.468C155.033 419.681 148.68 409.433 140.59 400.743C135.796 394.75 137.594 385.162 142.388 380.367Z" fill="#FAF6EB"/>
<path fill-rule="evenodd" clip-rule="evenodd" d="M167.139 382.106C159.888 379.109 154.135 376.173 149.46 373.356C147.303 375.813 144.906 378.15 142.389 380.368C137.594 385.162 135.797 394.751 140.591 400.743C148.741 409.433 155.094 419.681 159.169 430.468C163.304 431.007 167.499 431.487 171.754 431.906C186.676 433.345 201.179 433.884 214.903 433.524C214.962 433.524 215.082 433.524 215.142 433.524L231.982 386.361C231.982 386.42 210.348 399.964 167.139 382.106Z" fill="#EB3223"/>
<path fill-rule="evenodd" clip-rule="evenodd" d="M239.952 252.899C241.63 248.405 239.233 241.333 237.914 236.838C230.543 212.148 209.688 199.743 188.773 187.637C181.521 183.442 177.446 182.723 170.914 194.589C167.438 200.881 165.161 216.343 169.895 220.658C183.978 233.303 201.418 243.251 211.006 259.192C212.445 261.589 219.756 283.163 219.756 283.163C219.756 283.163 224.43 277.71 230.184 272.736C234.978 268.541 236.356 268.241 237.075 267.222L239.952 252.899Z" fill="#F7AA9A"/>
<path d="M304.015 159.29C302.277 158.391 301.558 156.294 302.457 154.496L302.577 154.316C303.476 152.578 305.573 151.859 307.371 152.758C309.109 153.657 309.828 155.755 308.929 157.552L308.809 157.732C307.85 159.53 305.753 160.189 304.015 159.29ZM306.652 154.196C305.693 153.717 304.554 154.077 304.015 155.035L303.895 155.215C303.416 156.174 303.775 157.313 304.734 157.852C305.693 158.332 306.832 157.972 307.371 157.013L307.491 156.833C307.97 155.815 307.611 154.676 306.652 154.196Z" fill="#1C2628" stroke="#1C2628" stroke-width="1.27648" stroke-linecap="round" stroke-linejoin="round"/>
<path d="M300.24 166.662C298.502 165.763 297.783 163.666 298.681 161.868L298.801 161.688C299.7 159.95 301.798 159.231 303.596 160.13C305.394 161.029 306.053 163.126 305.154 164.924L305.034 165.104C304.075 166.902 301.978 167.561 300.24 166.662ZM302.817 161.568C301.858 161.089 300.719 161.448 300.18 162.407L300.06 162.587C299.58 163.546 299.94 164.684 300.899 165.224C301.858 165.763 302.996 165.344 303.536 164.385L303.656 164.205C304.195 163.186 303.835 162.047 302.817 161.568Z" fill="#1C2628" stroke="#1C2628" stroke-width="1.27648" stroke-linecap="round" stroke-linejoin="round"/>
<path d="M306.771 150.301C304.194 148.982 303.235 145.806 304.494 143.289L308.868 134.839C310.187 132.262 313.303 131.303 315.88 132.562C318.457 133.88 319.416 137.057 318.157 139.574L313.783 148.023C312.464 150.6 309.288 151.619 306.771 150.301ZM315.161 134C313.363 133.101 311.206 133.76 310.307 135.558L305.932 144.008C305.033 145.806 305.692 147.964 307.49 148.862C309.288 149.761 311.445 149.102 312.344 147.304L316.719 138.854C317.618 137.057 316.959 134.899 315.161 134Z" fill="#1C2628" stroke="#1C2628" stroke-width="1.27648" stroke-linecap="round" stroke-linejoin="round"/>
<path fill-rule="evenodd" clip-rule="evenodd" d="M336.916 100.021L247.502 273.634C244.806 278.908 238.333 280.946 233.06 278.249L154.853 237.977C149.579 235.28 147.541 228.808 150.238 223.534L200.938 125.011C202.736 124.891 204.534 124.771 206.391 124.652L154.613 225.272C153.055 228.328 154.253 232.104 157.31 233.722L234.917 273.634C235.816 274.114 236.775 274.353 237.794 274.353C240.131 274.353 242.289 273.035 243.367 270.938L332.421 97.9832C332.721 97.3839 332.901 96.7847 333.021 96.1854C333.081 96.1854 333.141 96.1254 333.201 96.1254C334.879 95.4063 336.497 94.6272 338.115 93.9081C338.295 95.8857 337.935 98.0432 336.916 100.021Z" fill="#1C2628" stroke="#1C2628" stroke-width="1.27648" stroke-linecap="round" stroke-linejoin="round"/>
<path fill-rule="evenodd" clip-rule="evenodd" d="M332.961 96.1853C332.841 96.7846 332.661 97.3839 332.362 97.9832L243.367 270.937C242.289 273.035 240.131 274.353 237.794 274.353C236.775 274.353 235.816 274.114 234.918 273.634L157.31 233.722C154.253 232.164 153.055 228.388 154.613 225.272L206.391 124.711C218.437 123.872 231.562 122.374 245.285 120.157C279.684 114.523 311.027 105.714 332.961 96.1853Z" fill="#FAF6EB"/>
<path fill-rule="evenodd" clip-rule="evenodd" d="M283.281 61.3669C283.281 61.3669 281.603 64.663 281.483 67.4197C281.483 67.5995 281.483 67.7194 281.483 67.8992C281.543 70.4162 283.101 72.6335 285.319 73.7722L291.072 76.7087C292.69 77.5477 294.548 77.7275 296.226 77.1881C296.945 76.9484 297.664 76.6488 298.323 76.2293C300.661 74.6711 302.219 71.435 302.219 71.435L283.281 61.3669Z" fill="#1C2628" stroke="#1C2628" stroke-width="1.27648" stroke-linecap="round" stroke-linejoin="round"/>
<path fill-rule="evenodd" clip-rule="evenodd" d="M288.553 244.03C289.153 247.266 282.8 276.032 274.65 293.831L184.937 310.85C184.937 310.85 187.274 302.041 192.128 292.273C196.443 283.583 202.675 274.174 211.006 269.5C235.576 255.716 254.334 262.248 254.334 262.248C254.334 262.248 255.533 251.581 263.144 238.037C263.144 238.037 263.203 235.76 263.563 232.344C264.282 225.512 266.2 214.365 271.294 209.271C282.201 198.364 290.831 200.522 290.231 202.2C290.711 204.477 289.093 242.412 288.553 244.03Z" fill="#EB3223" stroke="#1C2628" stroke-width="1.27648" stroke-linecap="round" stroke-linejoin="round"/>
<path fill-rule="evenodd" clip-rule="evenodd" d="M149.519 188.716C141.908 190.334 138.852 197.166 142.567 204.417C143.586 206.395 149.699 215.264 155.212 214.245C157.789 213.766 166.179 214.905 164.561 194.948C163.483 187.158 159.647 186.618 149.519 188.716Z" fill="#EB3223" stroke="#1C2628" stroke-width="1.27648" stroke-linecap="round" stroke-linejoin="round"/>
<path d="M214.903 433.585C201.239 433.884 186.736 433.405 171.754 431.966C141.31 429.03 113.503 422.618 91.0898 414.108" stroke="#1C2628" stroke-width="1.27648" stroke-linecap="round" stroke-linejoin="round"/>
<path d="M132.021 357.176C132.021 357.176 134.718 365.865 149.461 373.356C164.203 380.847 179.485 390.975 200.999 390.975" stroke="#1C2628" stroke-width="1.27648" stroke-linecap="round" stroke-linejoin="round"/>
<path d="M282.022 204.238C282.022 204.238 279.804 217.782 282.022 219.939C284.239 222.156 287.475 222.156 287.475 222.156" stroke="#1C2628" stroke-width="1.27648" stroke-linecap="round" stroke-linejoin="round"/>
<path fill-rule="evenodd" clip-rule="evenodd" d="M254.995 272.556C246.125 276.751 241.63 269.74 230.184 272.736C216.101 276.511 214.902 289.336 202.797 292.393C199.98 293.112 196.444 293.351 192.069 292.273C196.384 283.583 202.617 274.174 210.947 269.5C235.518 255.716 254.275 262.248 254.275 262.248C254.275 262.248 255.474 251.581 263.085 238.037C263.085 238.037 263.145 235.76 263.504 232.344C266.141 236.12 267.999 240.434 268.538 245.109C269.677 255.716 264.164 268.181 254.995 272.556Z" fill="#FAF6EB"/>
<path fill-rule="evenodd" clip-rule="evenodd" d="M177.088 318.102C176.309 313.308 186.796 307.854 195.606 303.299C215.083 293.231 236.118 289.636 238.994 289.156C250.92 287.239 258.831 287.358 266.142 280.646C270.577 276.631 275.671 269.02 277.229 269.56C279.746 270.458 278.068 286.699 273.214 297.007C262.067 320.799 226.289 324.934 219.817 325.713C201.119 328.05 178.167 324.874 177.088 318.102Z" fill="#EB3223"/>
<path d="M322.473 180.206L304.375 192.252" stroke="#1C2628" stroke-width="1.27648" stroke-linecap="round" stroke-linejoin="round"/>
<path d="M323.553 199.024L304.735 201.181" stroke="#1C2628" stroke-width="1.27648" stroke-linecap="round" stroke-linejoin="round"/>
<path d="M303.297 210.41L320.676 229.228" stroke="#1C2628" stroke-width="1.27648" stroke-linecap="round" stroke-linejoin="round"/>
<path d="M304.017 229.587L312.526 239.895" stroke="#1C2628" stroke-width="1.27648" stroke-linecap="round" stroke-linejoin="round"/>
<path d="M132.622 386.781C130.464 391.815 129.026 397.568 130.884 402.662C132.262 406.557 135.378 409.554 138.015 412.79C140.652 416.026 142.929 419.981 142.27 424.116" stroke="#1C2628" stroke-width="1.27648" stroke-linecap="round" stroke-linejoin="round"/>
<path d="M142.088 410.153C143.826 413.748 147.541 416.026 149.159 419.621C149.939 421.359 150.178 423.337 150.178 425.255" stroke="#1C2628" stroke-width="1.27648" stroke-linecap="round" stroke-linejoin="round"/>
<path d="M161.087 344.291C161.087 347.047 161.087 349.864 160.607 352.621C160.128 355.378 159.109 358.074 157.251 360.112C155.273 362.329 152.517 363.708 149.88 365.026" stroke="#1C2628" stroke-width="1.27648" stroke-linecap="round" stroke-linejoin="round"/>
<path d="M163.244 357.954C162.465 360.351 160.847 362.509 158.749 363.947" stroke="#1C2628" stroke-width="1.27648" stroke-linecap="round" stroke-linejoin="round"/>
<path d="M147.542 205.076C147.242 202.439 146.942 199.682 147.961 197.285C148.98 194.888 151.856 192.97 154.314 194.049" stroke="#1C2628" stroke-width="1.27648" stroke-linecap="round" stroke-linejoin="round"/>
<path d="M265.902 285.86C253.257 306.895 241.271 328.41 230.005 350.224" stroke="#1C2628" stroke-width="1.27648" stroke-linecap="round" stroke-linejoin="round"/>
<path d="M249.123 328.11L225.151 374.195" stroke="#1C2628" stroke-width="1.27648" stroke-linecap="round" stroke-linejoin="round"/>
<path d="M278.968 255.896C275.192 272.017 276.211 283.223 262.008 305.577" stroke="#1C2628" stroke-width="1.27648" stroke-linecap="round" stroke-linejoin="round"/>
<path fill-rule="evenodd" clip-rule="evenodd" d="M364.664 71.7346C363.765 78.6264 353.936 86.3572 338.055 93.8483C336.497 94.5675 334.819 95.3465 333.141 96.0657C333.081 96.0657 333.021 96.1256 332.961 96.1256C311.027 105.654 279.625 114.524 245.285 120.097C231.562 122.314 218.437 123.813 206.392 124.652C204.534 124.772 202.736 124.891 200.938 125.011C186.375 125.79 173.491 125.611 162.943 124.412C143.826 122.314 132.619 117.041 133.638 109.07C134.657 101.16 147.662 91.9905 168.037 83.4807C185.117 76.3491 207.351 69.6371 232.101 64.5432C234.079 64.1237 235.997 63.7641 237.974 63.3446C242.888 62.3857 247.922 61.4868 253.016 60.6478C258.53 59.7489 263.923 58.9698 269.137 58.3106C272.014 57.951 274.83 57.6514 277.587 57.3517C296.704 55.3141 313.844 54.7748 327.807 55.6737C351.479 57.2319 365.802 62.8052 364.664 71.7346Z" fill="#1C2628" stroke="#1C2628" stroke-width="1.27648" stroke-linecap="round" stroke-linejoin="round"/>
<path d="M205.553 112.727C203.755 112.846 202.017 112.966 200.279 113.026C194.765 113.326 189.432 113.506 184.458 113.506C177.027 113.506 170.255 113.146 164.262 112.487" stroke="#FAF6EB" stroke-width="1.27648" stroke-linecap="round" stroke-linejoin="round"/>
<path d="M332.901 83.0614C331.403 83.7805 329.905 84.4398 328.347 85.1589L328.047 85.2788" stroke="#FAF6EB" stroke-width="1.27648" stroke-linecap="round" stroke-linejoin="round"/>
<path d="M172.651 94.5676C189.312 87.6159 211.245 81.1436 234.498 76.2894C236.416 75.9298 238.273 75.5103 240.251 75.1507C245.045 74.2518 249.959 73.3528 254.934 72.5138C260.207 71.6748 265.481 70.8958 270.695 70.2365C273.332 69.877 275.909 69.5773 278.366 69.3376L278.965 69.2777C291.55 67.9593 303.296 67.2401 314.023 67.2401C318.638 67.2401 323.072 67.36 327.148 67.5997" stroke="#FAF6EB" stroke-width="1.27648" stroke-linecap="round" stroke-linejoin="round"/>
<path d="M351.239 45.4264C381.923 47.404 400.561 54.5955 399.002 66.1617C397.864 75.0911 385.039 85.1591 364.484 94.8676C362.446 95.8265 360.288 96.7853 358.131 97.7442C358.071 97.8041 358.011 97.8041 357.951 97.8041" stroke="#1C2628" stroke-width="1.27648" stroke-linecap="round" stroke-linejoin="round"/>
<path d="M137.355 134.6C112.545 131.843 97.9818 125.012 99.3003 114.704C100.619 104.396 117.519 92.5302 143.887 81.5033C166.061 72.2144 194.947 63.5846 227.008 56.9326C229.525 56.3932 232.102 55.9138 234.619 55.3744C241.032 54.1159 247.564 52.9773 254.156 51.8985C261.288 50.7599 268.299 49.7411 275.131 48.9021" stroke="#1C2628" stroke-width="1.27648" stroke-linecap="round" stroke-linejoin="round"/>
<path d="M315.883 454.08C282.263 463.01 248.463 474.935 213.704 472.838" stroke="#1C2628" stroke-width="1.27648" stroke-linecap="round" stroke-linejoin="round"/>
<path d="M248.944 185.719C264.334 185.719 276.811 173.243 276.811 157.852C276.811 142.462 264.334 129.986 248.944 129.986C233.554 129.986 221.077 142.462 221.077 157.852C221.077 173.243 233.554 185.719 248.944 185.719Z" fill="#A9A9A9"/>
<path d="M230.308 148.024C235.701 137.716 248.466 133.761 258.714 139.214" stroke="#1C2628" stroke-width="1.27648" stroke-linecap="round" stroke-linejoin="round"/>
<path d="M235.46 150.721C239.355 143.29 248.584 140.413 256.016 144.368" stroke="#1C2628" stroke-width="1.27648" stroke-linecap="round" stroke-linejoin="round"/>
<path d="M248.944 161.628C251.03 161.628 252.72 159.938 252.72 157.852C252.72 155.767 251.03 154.077 248.944 154.077C246.859 154.077 245.169 155.767 245.169 157.852C245.169 159.938 246.859 161.628 248.944 161.628Z" stroke="#1C2628" stroke-width="1.27648" stroke-linecap="round" stroke-linejoin="round"/>
<path d="M250.623 177.988L243.072 192.371" stroke="#1C2628" stroke-width="1.27648" stroke-linecap="round" stroke-linejoin="round"/>
<path d="M250.622 177.989C249.423 177.389 249.004 175.891 249.603 174.753L250.861 172.415C251.461 171.217 252.959 170.797 254.098 171.397C255.296 171.996 255.716 173.494 255.116 174.633L253.858 176.97C253.259 178.169 251.76 178.588 250.622 177.989Z" stroke="#1C2628" stroke-width="1.27648" stroke-linecap="round" stroke-linejoin="round"/>
<path d="M201.659 192.97L244.388 214.724" stroke="#1C2628" stroke-width="1.27648" stroke-linecap="round" stroke-linejoin="round"/>
<path d="M219.337 214.305L245.765 227.849" stroke="#1C2628" stroke-width="1.27648" stroke-linecap="round" stroke-linejoin="round"/>
<path d="M190.095 199.383L219.34 214.305" stroke="black" stroke-width="3.59572" stroke-linecap="round" stroke-linejoin="round"/>
<path d="M77.7267 289.396C74.97 288.377 71.9736 288.437 69.5165 289.336C68.0782 289.815 66.8197 290.535 65.8009 291.374C65.6211 290.714 65.5013 290.055 65.3215 289.396C65.0219 288.137 64.7222 286.819 64.4825 285.501C65.6211 284.302 66.6399 282.984 67.5389 281.545C69.8162 278.249 71.3743 274.294 71.5541 270.219C71.6739 266.204 71.614 262.068 70.0559 258.593C69.6963 257.694 69.2768 257.094 68.5577 255.896C68.3179 255.476 67.8385 254.637 67.2392 254.038C66.6399 253.379 65.5612 252.959 64.4825 253.139C62.3251 253.618 61.4261 254.997 60.8268 256.016C60.5272 256.555 60.3474 257.034 60.1676 257.634C60.0478 257.933 59.9878 258.113 59.9279 258.353L59.868 258.533C59.8081 258.712 59.8081 258.712 59.8081 258.772L59.7481 259.132C59.3286 261.229 59.5683 263.147 59.8081 264.945C60.0478 266.743 60.2875 268.481 60.4673 270.219C60.707 272.975 61.1265 275.672 61.6658 278.369C60.8268 279.568 59.9279 280.766 58.9691 281.845L57.1712 283.882C56.5719 284.542 55.9726 285.321 55.3134 286.1C52.8563 289.216 50.9386 292.752 49.9198 296.707C48.8411 300.603 49.2606 305.217 51.478 308.693C53.6354 312.229 57.1113 314.446 60.5871 315.525C64.0031 316.544 67.4789 316.783 70.775 316.304C71.1945 317.982 71.614 319.66 71.9736 321.218C73.292 325.353 72.0934 329.249 69.5764 330.687C67.7187 331.706 65.8009 331.346 64.5424 330.687C64.6623 330.687 64.7821 330.687 64.9619 330.687C66.9396 330.627 68.4378 328.949 68.3179 326.971C68.258 324.994 66.58 323.495 64.6024 323.615C62.6247 323.675 61.1265 325.353 61.2463 327.331C61.2463 327.511 61.3063 327.63 61.3063 327.81C61.4261 328.529 61.7857 329.189 62.2651 329.668C62.385 329.848 62.5049 329.968 62.6846 330.147C63.3439 330.807 64.2428 331.466 65.5013 331.825C66.7598 332.185 68.3179 332.245 69.9959 331.586C71.614 330.927 73.1122 329.368 73.7115 327.331C74.0112 326.312 74.191 325.233 74.0711 324.095C73.9512 322.896 73.7115 321.877 73.4718 320.799C73.1122 319.24 72.6927 317.622 72.2732 315.944C75.2097 315.345 77.9065 314.147 80.3037 312.528C82.9406 310.551 84.9182 307.674 85.5175 304.498C86.1767 301.322 85.5774 298.026 84.1991 295.329C82.9406 292.632 80.5434 290.415 77.7267 289.396ZM62.9244 262.368C63.3439 260.93 64.063 256.974 66.2804 257.514C67.6587 257.873 68.0183 259.731 68.0782 260.93C68.258 263.746 67.7187 266.683 66.5201 269.26C65.3814 271.777 64.1829 274.114 62.8045 276.451C62.5049 274.354 62.2651 272.256 62.0853 270.099C61.9655 267.522 62.2651 264.885 62.9244 262.368ZM61.6658 312.768C58.7893 311.51 56.2123 309.472 54.8939 306.775C53.5755 304.138 53.5755 301.022 54.6542 298.086C55.7329 295.149 57.7705 292.452 59.9878 290.055C60.5272 289.456 61.0666 288.857 61.7857 288.197L62.7446 287.298C62.9843 287.059 63.1641 286.879 63.4038 286.639C63.6435 287.658 63.8832 288.677 64.063 289.696C64.2428 290.595 64.4825 291.434 64.6623 292.332C62.6846 294.31 61.546 296.707 61.1864 298.805C60.5871 302.341 61.546 305.037 62.3251 306.595C62.6846 307.375 63.1041 307.974 63.3439 308.333C63.5836 308.693 63.7634 308.873 63.7634 308.873C63.7634 308.873 63.4637 307.974 63.1641 306.296C62.9244 304.678 62.6846 302.161 63.7034 299.464C64.1229 298.385 64.7222 297.247 65.6211 296.228C66.5201 299.883 67.419 303.479 68.3179 306.775C68.9772 309.352 69.6364 311.869 70.2956 314.206C67.3591 314.446 64.3027 313.967 61.6658 312.768ZM83.7196 304.258C83.5398 306.955 81.9817 309.592 79.5246 311.27C77.3672 312.768 74.7303 313.727 71.9137 314.087C71.2544 311.629 70.5353 309.112 69.7562 306.416C68.7374 302.88 67.7187 299.104 66.6999 295.149C67.7786 294.19 69.097 293.411 70.6552 292.992C74.191 292.033 78.6257 293.171 81.5023 297.067C82.9406 299.044 83.8994 301.621 83.7196 304.258Z" fill="#1C2628" stroke="#1C2628" stroke-width="1.27648" stroke-linecap="round" stroke-linejoin="round"/>
<path d="M184.102 229.167L175.232 214.185L192.612 213.945L184.102 229.167Z" fill="#1C2628" stroke="#1C2628" stroke-width="1.27648" stroke-linecap="round" stroke-linejoin="round"/>
<path d="M222.396 250.621L239.836 250.441L230.906 235.459L222.396 250.621Z" fill="#1C2628" stroke="#1C2628" stroke-width="1.27648" stroke-linecap="round" stroke-linejoin="round"/>
<path d="M206.528 221.8L197.993 237.007L202.435 239.5L210.97 224.293L206.528 221.8Z" fill="#1C2628" stroke="#1C2628" stroke-width="1.27642" stroke-miterlimit="3.9998" stroke-linecap="round" stroke-linejoin="round"/>
<path d="M214.12 226.047L205.585 241.254L210.027 243.747L218.562 228.54L214.12 226.047Z" fill="#1C2628" stroke="#1C2628" stroke-width="1.27642" stroke-miterlimit="3.9998" stroke-linecap="round" stroke-linejoin="round"/>
</svg>
