<svg width="39" height="39" viewBox="0 0 39 39" fill="none" xmlns="http://www.w3.org/2000/svg">
<path d="M3.005 3.16944C0.0240084 6.26521 0.634116 9.55377 0.634116 19.5443C0.634116 27.8408 -0.813704 36.1578 6.76364 38.1157C9.12978 38.7241 30.0947 38.7241 32.4577 38.1126C35.6126 37.2987 38.1794 34.7403 38.5303 30.2791C38.5793 29.6565 38.5793 9.44315 38.5287 8.80787C38.1557 4.05598 35.2301 1.31735 31.375 0.762674C30.4914 0.634672 30.3144 0.596745 25.7813 0.588844C9.70196 0.596745 6.17724 -0.119121 3.005 3.16944V3.16944Z" fill="url(#paint0_linear_366_123)"/>
<path d="M19.544 5.2961C13.7005 5.2961 8.1516 4.7767 6.03212 10.2119C5.15665 12.4567 5.28378 15.3721 5.28378 19.5466C5.28378 23.2098 5.1663 26.6526 6.03212 28.8797C8.14677 34.3182 13.7408 33.7972 19.5408 33.7972C25.1364 33.7972 30.9058 34.3793 33.051 28.8797C33.9281 26.6124 33.7994 23.7404 33.7994 19.5466C33.7994 13.9796 34.1067 10.3856 31.4047 7.68727C28.6688 4.95359 24.969 5.2961 19.5375 5.2961H19.544ZM18.2662 7.86415C30.4552 7.84486 32.0066 6.49088 31.1504 25.3002C30.8463 31.9527 25.7769 31.2227 19.5456 31.2227C8.18378 31.2227 7.85709 30.8978 7.85709 19.5402C7.85709 8.05069 8.75831 7.87059 18.2662 7.86094V7.86415ZM27.1561 10.2296C26.2114 10.2296 25.4454 10.995 25.4454 11.939C25.4454 12.8829 26.2114 13.6483 27.1561 13.6483C28.1008 13.6483 28.8668 12.8829 28.8668 11.939C28.8668 10.995 28.1008 10.2296 27.1561 10.2296V10.2296ZM19.544 12.2284C15.4998 12.2284 12.2216 15.5056 12.2216 19.5466C12.2216 23.5877 15.4998 26.8633 19.544 26.8633C23.5882 26.8633 26.8648 23.5877 26.8648 19.5466C26.8648 15.5056 23.5882 12.2284 19.544 12.2284V12.2284ZM19.544 14.7965C25.8284 14.7965 25.8364 24.2968 19.544 24.2968C13.2612 24.2968 13.2515 14.7965 19.544 14.7965Z" fill="white"/>
<defs>
<linearGradient id="paint0_linear_366_123" x1="3.07774" y1="36.0931" x2="38.3276" y2="5.5788" gradientUnits="userSpaceOnUse">
<stop stop-color="#FFDD55"/>
<stop offset="0.5" stop-color="#FF543E"/>
<stop offset="1" stop-color="#C837AB"/>
</linearGradient>
</defs>
</svg>
