<svg width="25" height="25" viewBox="0 0 25 25" fill="none" xmlns="http://www.w3.org/2000/svg">
<path d="M12.3438 0C5.52668 0 0 5.52593 0 12.3433C0 19.1604 5.52668 24.6866 12.3438 24.6866C19.1609 24.6866 24.6876 19.1602 24.6876 12.343C24.6876 5.52593 19.1609 0 12.3438 0ZM17.0945 18.206C16.8947 18.206 16.7585 18.137 16.572 18.0231C14.7829 16.9407 12.5518 16.3717 10.1853 16.3717C8.86422 16.3717 7.53487 16.5416 6.29161 16.8001C6.08958 16.844 5.83561 16.9216 5.68303 16.9216C5.21448 16.9216 4.90228 16.5497 4.90228 16.1456C4.90228 15.6276 5.20093 15.3686 5.57361 15.2976C7.0982 14.95 8.61652 14.7515 10.1936 14.7515C12.8944 14.7515 15.3016 15.3717 17.3731 16.6132C17.6813 16.7931 17.8617 16.9768 17.8617 17.4338C17.8619 17.8793 17.5001 18.206 17.0945 18.206ZM18.4394 14.939C18.1716 14.939 18.0032 14.8306 17.8208 14.7247C15.8131 13.5331 13.0299 12.7416 9.98275 12.7416C8.41976 12.7416 7.07059 12.9607 5.95406 13.2581C5.71339 13.3246 5.57863 13.3958 5.35326 13.3958C4.82273 13.3958 4.38907 12.9627 4.38907 12.4281C4.38907 11.9034 4.64379 11.5425 5.15676 11.3979C6.54433 11.0165 7.96176 10.7231 10.0239 10.7231C13.255 10.7231 16.3808 11.5277 18.8379 12.9983C19.25 13.234 19.4016 13.5346 19.4016 13.9738C19.4016 14.5073 18.976 14.939 18.4394 14.939ZM19.9708 11.1394C19.7198 11.1394 19.5705 11.0782 19.3351 10.9492C17.1013 9.60957 13.6335 8.872 10.2806 8.872C8.60673 8.872 6.90697 9.0424 5.34975 9.46477C5.17031 9.50969 4.94419 9.59954 4.71707 9.59954C4.05855 9.59954 3.55311 9.07854 3.55311 8.42027C3.55311 7.7492 3.96871 7.37275 4.41692 7.2405C6.17667 6.72226 8.14069 6.48083 10.2759 6.48083C13.9005 6.48083 17.7141 7.22644 20.4995 8.86196C20.875 9.07503 21.1352 9.3955 21.1352 9.98326C21.1347 10.6558 20.5942 11.1394 19.9708 11.1394Z" fill="black"/>
</svg>
