<svg width="41" height="40" viewBox="0 0 41 40" fill="none" xmlns="http://www.w3.org/2000/svg">
<path d="M20.5166 0C9.71925 0 0.96582 8.75224 0.96582 19.5499C0.96582 30.3473 9.71925 39.0999 20.5166 39.0999C31.3139 39.0999 40.0673 30.3469 40.0673 19.5496C40.0673 8.75224 31.3139 0 20.5166 0ZM28.041 28.8356C27.7246 28.8356 27.5087 28.7263 27.2134 28.5459C24.3797 26.8315 20.8461 25.9304 17.0978 25.9304C15.0054 25.9304 12.8999 26.1995 10.9308 26.6089C10.6108 26.6785 10.2086 26.8013 9.96689 26.8013C9.22478 26.8013 8.73031 26.2122 8.73031 25.5723C8.73031 24.7518 9.20332 24.3416 9.79358 24.2292C12.2083 23.6786 14.6131 23.3642 17.1109 23.3642C21.3886 23.3642 25.2013 24.3464 28.4822 26.3128C28.9703 26.5978 29.2561 26.8887 29.2561 27.6126C29.2565 28.3181 28.6833 28.8356 28.041 28.8356ZM30.1711 23.6611C29.747 23.6611 29.4803 23.4894 29.1913 23.3217C26.0114 21.4344 21.6033 20.1808 16.777 20.1808C14.3015 20.1808 12.1646 20.5278 10.3962 20.9988C10.015 21.1041 9.80153 21.217 9.44459 21.217C8.60431 21.217 7.91745 20.5309 7.91745 19.6843C7.91745 18.8532 8.3209 18.2816 9.13336 18.0526C11.3311 17.4484 13.5761 16.9838 16.8422 16.9838C21.9598 16.9838 26.9105 18.2581 30.8023 20.5874C31.455 20.9606 31.6951 21.4368 31.6951 22.1324C31.6951 22.9775 31.0209 23.6611 30.1711 23.6611ZM32.5966 17.6432C32.1991 17.6432 31.9626 17.5462 31.5897 17.3419C28.0517 15.2201 22.5592 14.0519 17.2488 14.0519C14.5976 14.0519 11.9054 14.3218 9.43903 14.9908C9.15482 15.0619 8.79669 15.2042 8.43696 15.2042C7.39396 15.2042 6.59343 14.3791 6.59343 13.3364C6.59343 12.2736 7.25166 11.6773 7.96157 11.4679C10.7487 10.6471 13.8595 10.2647 17.2413 10.2647C22.9822 10.2647 29.0224 11.4456 33.4341 14.036C34.0287 14.3735 34.4409 14.8811 34.4409 15.812C34.4401 16.8773 33.5839 17.6432 32.5966 17.6432Z" fill="#1DB954"/>
</svg>
