<svg width="39" height="33" viewBox="0 0 39 33" fill="none" xmlns="http://www.w3.org/2000/svg">
<path d="M38.5234 4.65827C37.0972 5.2839 35.5775 5.69858 33.993 5.89994C35.623 4.92674 36.8671 3.39743 37.452 1.55411C35.9322 2.46019 34.2543 3.1002 32.4661 3.45736C31.0231 1.92086 28.9665 0.969238 26.7228 0.969238C22.3698 0.969238 18.8654 4.50247 18.8654 8.8339C18.8654 9.45713 18.9181 10.0564 19.0475 10.6269C12.5108 10.3081 6.72678 7.17516 2.84119 2.40266C2.16283 3.57961 1.76493 4.92674 1.76493 6.37695C1.76493 9.09998 3.16719 11.5138 5.2574 12.9113C3.99417 12.8873 2.7549 12.5205 1.705 11.9429C1.705 11.9668 1.705 11.998 1.705 12.0291C1.705 15.85 4.43043 19.0237 8.0044 19.7548C7.36439 19.9298 6.66686 20.0137 5.94295 20.0137C5.43958 20.0137 4.93141 19.9849 4.4544 19.8794C5.47314 22.9932 8.36396 25.2823 11.8013 25.3567C9.12621 27.4493 5.72962 28.7101 2.05257 28.7101C1.40777 28.7101 0.789333 28.6813 0.170898 28.6022C3.65379 30.8483 7.78148 32.1307 12.2328 32.1307C26.7013 32.1307 34.6115 20.1455 34.6115 9.75676C34.6115 9.40919 34.5995 9.07361 34.5827 8.74042C36.1432 7.63299 37.4543 6.2499 38.5234 4.65827Z" fill="#1DA1F2"/>
</svg>
