<svg width="155" height="57" viewBox="0 0 155 57" fill="none" xmlns="http://www.w3.org/2000/svg">
<path d="M89.7728 10.691C87.5095 8.30721 84.9715 7.20758 78.6424 6.01772C71.7935 4.70578 71.3654 4.46136 69.5296 0.793325C68.1834 -1.7437 68.2453 0.212942 70.7643 30.9073L70.8873 32.6804L68.4718 31.9782C64.6803 30.8179 61.3785 31.0944 58.0773 32.7466C52.3918 35.5921 51.7826 41.2484 56.798 44.854C60.6819 47.7264 68.0192 47.112 71.7171 43.6558C72.8479 42.5547 73.8562 40.9034 73.9475 39.8639C74.0694 38.8855 73.7611 32.4653 73.1469 25.5866C72.6245 18.7385 72.1636 12.9298 72.2247 12.7463C72.2552 12.5017 73.203 12.7154 74.2427 13.1124C75.3434 13.4788 78.7984 14.1195 82.0087 14.424C85.1579 14.759 89.0715 15.3995 90.692 15.8881L93.5968 16.8041L92.3118 14.3893C91.6693 13.1055 90.5068 11.3939 89.7728 10.691Z" fill="white"/>
<path d="M36.3792 10.691C34.1159 8.30721 31.5779 7.20758 25.2488 6.01772C18.3999 4.70578 17.9718 4.46136 16.136 0.793325C14.7898 -1.7437 14.8517 0.212942 17.3707 30.9073L17.4937 32.6804L15.0782 31.9782C11.2867 30.8179 7.9849 31.0944 4.68367 32.7466C-1.00179 35.5921 -1.61102 41.2484 3.40437 44.854C7.28827 47.7264 14.6256 47.112 18.3235 43.6558C19.4543 42.5547 20.4626 40.9034 20.5539 39.8639C20.6758 38.8855 20.3675 32.4653 19.7533 25.5866C19.2309 18.7385 18.77 12.9298 18.8311 12.7463C18.8616 12.5017 19.8094 12.7154 20.8491 13.1124C21.9498 13.4788 25.4048 14.1195 28.6151 14.424C31.7643 14.759 35.6779 15.3995 37.2984 15.8881L40.2032 16.8041L38.9182 14.3893C38.2757 13.1055 37.1132 11.3939 36.3792 10.691Z" fill="white"/>
<path d="M101.66 42.7468C101.66 42.7468 99.6816 36.4809 99.6816 31.2986C99.6816 25.2683 101.566 22.4886 101.566 22.4886C101.566 22.4886 100.906 22.0646 99.0691 22.0646C96.3366 22.0646 95.1588 24.2789 92.9917 24.2789C91.6725 24.2789 90.9187 23.902 90.9187 23.902C90.9187 23.902 92.285 26.4461 92.285 31.1101C92.285 31.3928 92.2379 31.6755 92.2379 31.9582C90.7303 35.5858 87.8564 38.5067 86.3489 38.5067C84.5115 38.5067 84.4644 35.0204 84.4644 31.2986C84.4644 25.2683 86.3489 22.4886 86.3489 22.4886C86.3489 22.4886 85.7364 22.0646 83.899 22.0646C81.1665 22.0646 79.9416 24.2789 77.8216 24.2789C76.4553 24.2789 75.7487 23.902 75.7487 23.902C75.7487 23.902 77.0678 26.4461 77.0678 31.1101C77.0678 35.0676 75.4189 43.7833 83.0039 43.7833C87.5738 43.7833 90.4476 38.7894 92.0023 34.8791C91.3898 39.1192 90.0707 42.7468 90.0707 42.7468H101.66Z" fill="white"/>
<path d="M48.2667 42.7468C48.2667 42.7468 46.2879 36.4809 46.2879 31.2986C46.2879 25.2683 48.1724 22.4886 48.1724 22.4886C48.1724 22.4886 47.5129 22.0646 45.6755 22.0646C42.943 22.0646 41.7652 24.2789 39.598 24.2789C38.2789 24.2789 37.5251 23.902 37.5251 23.902C37.5251 23.902 38.8914 26.4461 38.8914 31.1101C38.8914 31.3928 38.8443 31.6755 38.8443 31.9582C37.3367 35.5858 34.4628 38.5067 32.9553 38.5067C31.1179 38.5067 31.0708 35.0204 31.0708 31.2986C31.0708 25.2683 32.9553 22.4886 32.9553 22.4886C32.9553 22.4886 32.3428 22.0646 30.5054 22.0646C27.7729 22.0646 26.548 24.2789 24.428 24.2789C23.0617 24.2789 22.355 23.902 22.355 23.902C22.355 23.902 23.6742 26.4461 23.6742 31.1101C23.6742 35.0676 22.0253 43.7833 29.6103 43.7833C34.1802 43.7833 37.054 38.7894 38.6087 34.8791C37.9962 39.1192 36.6771 42.7468 36.6771 42.7468H48.2667Z" fill="white"/>
<path d="M135 42.7468C135 42.7468 130.053 40.0143 126.661 33.0889C126.001 31.6755 124.353 29.2728 123.316 27.7652C126.049 25.3625 129.346 22.8184 132.786 21.3108H122.562C122.562 21.3108 121.856 24.9385 120.254 27.0585C119.312 28.3305 117.757 29.9795 116.626 31.1101C116.579 30.4506 116.579 29.791 116.579 29.1786C116.579 23.1482 118.464 11.7471 118.464 11.7471C118.464 11.7471 117.804 11.3702 115.967 11.3702C113.234 11.3702 112.056 13.5845 109.889 13.5845C108.57 13.5845 107.816 13.2076 107.816 13.2076C107.816 13.2076 109.182 23.7136 109.182 28.3777C109.182 35.9156 106.968 42.7468 106.968 42.7468H118.558C118.558 42.7468 117.568 38.7423 116.956 34.408C116.956 34.408 117.992 33.136 119.688 31.3457C120.348 32.1466 121.196 33.2773 121.432 33.7013C124.211 38.6952 122.892 42.7468 122.892 42.7468H135Z" fill="white"/>
<path d="M144.117 33.2302C147.274 33.56 155 33.7484 155 27.0585C155 23.1011 150.383 21.3108 146.143 21.3108C141.856 21.3108 134.601 24.1847 134.601 32.3822C134.601 40.5797 141.667 43.7833 145.389 43.7833C149.912 43.7833 155 41.569 155 36.7636C155 36.7636 146.52 39.6845 144.117 33.2302ZM143.505 29.2728C143.505 26.022 144.682 22.8184 147.179 22.8184C148.828 22.8184 149.629 24.3731 149.629 26.2576C149.629 28.9901 146.803 31.2515 143.74 31.7697C143.599 31.0159 143.505 30.215 143.505 29.2728Z" fill="white"/>
<path d="M145.569 56.2994C147.689 56.2994 149.385 54.6033 149.385 52.4833C149.385 50.3633 147.689 48.6672 145.569 48.6672C143.449 48.6672 141.753 50.3633 141.753 52.4833C141.753 54.6033 143.449 56.2994 145.569 56.2994Z" fill="#EB3223"/>
</svg>
