<svg width="51" height="37" viewBox="0 0 51 37" fill="none" xmlns="http://www.w3.org/2000/svg">
<g clip-path="url(#clip0_366_115)">
<path fill-rule="evenodd" clip-rule="evenodd" d="M19.943 25.0945L19.9414 10.9172L33.4787 18.0303L19.943 25.0945ZM49.6668 8.46048C49.6668 8.46048 49.1767 4.98356 47.6752 3.45245C45.7697 1.44199 43.634 1.43251 42.6554 1.31582C35.6441 0.804924 25.1271 0.804932 25.1271 0.804932H25.1052C25.1052 0.804932 14.5882 0.804924 7.57683 1.31582C6.59669 1.43251 4.46259 1.44199 2.55554 3.45245C1.054 4.98356 0.565482 8.46048 0.565482 8.46048C0.565482 8.46048 0.0644531 12.5445 0.0644531 16.6269V20.4555C0.0644531 24.5395 0.565482 28.6219 0.565482 28.6219C0.565482 28.6219 1.054 32.0989 2.55554 33.63C4.46259 35.6404 6.96618 35.5773 8.08098 35.787C12.0893 36.175 25.1161 36.2948 25.1161 36.2948C25.1161 36.2948 35.6441 36.279 42.6554 35.7681C43.634 35.6499 45.7697 35.6404 47.6752 33.63C49.1767 32.0989 49.6668 28.6219 49.6668 28.6219C49.6668 28.6219 50.1678 24.5395 50.1678 20.4555V16.6269C50.1678 12.5445 49.6668 8.46048 49.6668 8.46048Z" fill="#FF0002"/>
</g>
<defs>
<clipPath id="clip0_366_115">
<rect width="50.1034" height="35.4899" fill="white" transform="translate(0.0673828 0.805054)"/>
</clipPath>
</defs>
</svg>
